<?xml version="1.0" encoding="UTF-8" standalone="no"?><!DOCTYPE svg PUBLIC "-//W3C//DTD SVG 1.1//EN" "http://www.w3.org/Graphics/SVG/1.1/DTD/svg11.dtd"><svg width="100%" height="100%" viewBox="0 0 557 293" version="1.1" xmlns="http://www.w3.org/2000/svg" xmlns:xlink="http://www.w3.org/1999/xlink" xml:space="preserve" xmlns:serif="http://www.serif.com/" style="fill-rule:evenodd;clip-rule:evenodd;stroke-linejoin:round;stroke-miterlimit:2;"><rect id="Plan-de-travail1" serif:id="Plan de travail1" x="0" y="0" width="556.752" height="292.901" style="fill:none;"/><g transform="matrix(0.553313,0.049867,-0.03197,0.554926,-32.667495,-202.225127)"><g transform="matrix(0.451105,-0.892471,0.892471,0.451105,-521.804243,508.665018)"><text x="152.628px" y="678.544px" style="font-family:'Algerian', fantasy;font-stretch:extra-condensed;font-size:100px;fill:#152861;">A</text></g><g transform="matrix(0.603577,-0.797305,0.797305,0.603577,-412.946151,391.794753)"><text x="187.525px" y="611.166px" style="font-family:'Algerian', fantasy;font-stretch:extra-condensed;font-size:100px;fill:#152861;">U</text></g><g transform="matrix(0.74838,-0.66327,0.66327,0.74838,-300.37529,297.142951)"><text x="241.447px" y="544.466px" style="font-family:'Algerian', fantasy;font-stretch:extra-condensed;font-size:100px;fill:#152861;">P</text></g><g transform="matrix(0.835243,-0.549881,0.549881,0.835243,-230.491656,240.173644)"><text x="285.547px" y="504.723px" style="font-family:'Algerian', fantasy;font-stretch:extra-condensed;font-size:100px;fill:#152861;">A</text></g><g transform="matrix(0.897329,-0.441362,0.441362,0.897329,-168.807876,201.727946)"><text x="349.19px" y="463.7px" style="font-family:'Algerian', fantasy;font-stretch:extra-condensed;font-size:100px;fill:#152861;">S</text></g><g transform="matrix(0.93737,-0.348337,0.348337,0.93737,-128.065523,166.473629)"><text x="398.912px" y="439.373px" style="font-family:'Algerian', fantasy;font-stretch:extra-condensed;font-size:100px;fill:#152861;">S</text></g><g transform="matrix(0.971605,-0.23661,0.23661,0.971605,-86.449151,118.620535)"><text x="450.99px" y="419.488px" style="font-family:'Algerian', fantasy;font-stretch:extra-condensed;font-size:100px;fill:#152861;">A</text></g><g transform="matrix(0.992994,-0.118164,0.118164,0.992994,-43.804319,64.79988)"><text x="524.567px" y="401.81px" style="font-family:'Algerian', fantasy;font-stretch:extra-condensed;font-size:100px;fill:#152861;">G</text></g><g transform="matrix(0.999926,-0.012198,0.012198,0.999926,-4.760624,7.255206)"><text x="592.379px" y="393.889px" style="font-family:'Algerian', fantasy;font-stretch:extra-condensed;font-size:100px;fill:#152861;">E</text></g><g transform="matrix(0.992054,0.125815,-0.125815,0.992054,55.039306,-82.347426)"><text x="679.433px" y="394.552px" style="font-family:'Algerian', fantasy;font-stretch:extra-condensed;font-size:100px;fill:#152861;">D</text></g><g transform="matrix(0.974,0.226549,-0.226549,0.974,110.330761,-157.072162)"><text x="739.476px" y="402.138px" style="font-family:'Algerian', fantasy;font-stretch:extra-condensed;font-size:100px;fill:#152861;">U</text></g><g transform="matrix(0.929578,0.368626,-0.368626,0.929578,214.000642,-273.451976)"><text x="822.694px" y="423.369px" style="font-family:'Algerian', fantasy;font-stretch:extra-condensed;font-size:100px;fill:#152861;">L</text></g><g transform="matrix(0.899102,0.437739,-0.437739,0.899102,282.401333,-337.545949)"><text x="873.411px" y="443.816px" style="font-family:'Algerian', fantasy;font-stretch:extra-condensed;font-size:100px;fill:#152861;">I</text></g><g transform="matrix(0.854762,0.51902,-0.51902,0.854762,367.789079,-401.539035)"><text x="901.361px" y="456.393px" style="font-family:'Algerian', fantasy;font-stretch:extra-condensed;font-size:100px;fill:#152861;">V</text></g><g transform="matrix(0.782589,0.622538,-0.622538,0.782589,511.488195,-488.125836)"><text x="954.599px" y="488.24px" style="font-family:'Algerian', fantasy;font-stretch:extra-condensed;font-size:100px;fill:#152861;">R</text></g><g transform="matrix(0.690666,0.723174,-0.723174,0.690666,692.3944,-563.210365)"><text x="1004.546px" y="527.749px" style="font-family:'Algerian', fantasy;font-stretch:extra-condensed;font-size:100px;fill:#152861;">E</text></g></g><path d="M274.561,252.076c1.355,1.164 1.355,1.164 2.917,1.508c0.991,-0.633 0.991,-0.633 1.971,-1.632c19.516,-17.907 44.846,-19.735 68.237,-19.688c0.547,0 1.094,0 1.658,0c21.31,0.045 42.615,2.054 63.781,5.045c1.123,0.158 2.246,0.313 3.369,0.468c7.398,1.018 14.769,2.208 22.126,3.62c3.009,0.576 6.025,1.084 9.045,1.562c2.538,0.416 5.046,0.976 7.561,1.577c2.691,0.642 5.388,1.242 8.087,1.836c13.373,2.951 26.725,5.935 39.81,10.547c0.366,0.128 0.732,0.256 1.11,0.388c2.365,0.828 4.725,1.675 7.082,2.534c1.06,0.384 2.122,0.757 3.185,1.129c3.472,1.239 6.865,2.604 10.23,4.249c7.849,3.811 14.77,6.175 23.255,6.699l0,7.222c-5.35,0.247 -10.635,-0.159 -15.963,-0.729c-0.353,-0.038 -0.706,-0.075 -1.069,-0.114c-0.36,-0.039 -0.72,-0.077 -1.092,-0.117c-5.116,-0.547 -10.233,-1.016 -15.357,-1.436c-6.477,-0.533 -12.95,-1.122 -19.423,-1.745c-0.378,-0.036 -0.756,-0.073 -1.145,-0.11c-3.458,-0.332 -6.916,-0.664 -10.374,-1.003c-8.442,-0.827 -16.881,-1.572 -25.337,-2.134c-5.794,-0.385 -11.581,-0.855 -17.368,-1.362c-1.607,-0.141 -3.214,-0.279 -4.821,-0.417c-5.284,-0.457 -10.564,-0.95 -15.841,-1.511c-5.76,-0.611 -11.523,-1.152 -17.287,-1.697c-0.964,-0.091 -1.928,-0.183 -2.891,-0.274c-8.367,-0.794 -16.735,-1.549 -25.108,-2.239c-5.642,-0.466 -11.273,-1.032 -16.903,-1.679c-3.8,-0.437 -7.592,-0.818 -11.405,-1.018c-2.184,-0.12 -4.348,-0.353 -6.523,-0.626c-2.209,-0.27 -4.419,-0.483 -6.633,-0.677c-0.508,-0.046 -1.015,-0.092 -1.539,-0.14c-7.101,-0.566 -12.092,-0.201 -17.991,4.933c-1.481,1.251 -3.043,2.292 -4.623,3.332c-0.305,0.203 -0.61,0.406 -0.925,0.616c-3.494,2.277 -7.139,4.076 -10.825,5.806c-0.808,0.38 -1.613,0.771 -2.416,1.165c-15.086,6.957 -31.001,3.382 -45.189,-4.601c-4.326,-2.518 -8.644,-5.124 -12.736,-8.201c-0.315,-0.234 -0.629,-0.469 -0.953,-0.711c-0.561,-0.426 -1.117,-0.863 -1.665,-1.316c-3.65,-2.795 -8.659,-1.378 -12.737,-0.985c-0.796,0.074 -0.796,0.074 -1.608,0.149c-1.479,0.138 -2.958,0.277 -4.438,0.418c-1.664,0.158 -3.328,0.312 -4.992,0.468c-4.059,0.379 -8.118,0.762 -12.177,1.145c-22.328,2.106 -22.328,2.106 -32.834,3.006c-0.335,0.029 -0.671,0.058 -1.016,0.088c-0.857,0.074 -1.715,0.148 -2.573,0.221c-1.067,0.112 -2.133,0.258 -3.195,0.432c-2.404,0.388 -4.818,0.55 -7.236,0.739c-1.199,0.097 -2.399,0.194 -3.598,0.293c-0.334,0.027 -0.668,0.055 -1.012,0.083c-5.052,0.417 -10.102,0.874 -15.152,1.325c-0.529,0.047 -1.059,0.095 -1.604,0.143c-3.304,0.295 -6.607,0.591 -9.911,0.887c-2.239,0.2 -4.478,0.4 -6.717,0.601c-2.196,0.196 -4.393,0.393 -6.589,0.589c-1.03,0.092 -2.06,0.184 -3.091,0.276c-4.913,0.439 -9.826,0.882 -14.737,1.341c-4.822,0.451 -9.644,0.882 -14.47,1.257c-1.041,0.081 -2.081,0.164 -3.122,0.247c-2.949,0.235 -5.897,0.468 -8.846,0.699c-8.323,0.651 -16.633,1.383 -24.938,2.33c-4.916,0.56 -9.834,1.033 -14.76,1.426c-1.273,0.102 -2.546,0.21 -3.818,0.318c-4.604,0.38 -9.16,0.588 -13.774,0.511l0,-7.222c0.814,-0.095 1.628,-0.189 2.467,-0.286c1.084,-0.136 2.168,-0.272 3.252,-0.408c0.802,-0.091 0.802,-0.091 1.621,-0.184c2.83,-0.365 5.262,-0.902 7.863,-2.346c1.554,-0.837 3.141,-1.532 4.739,-2.222c0.316,-0.137 0.632,-0.274 0.958,-0.415c1,-0.432 2.002,-0.862 3.003,-1.29c0.346,-0.148 0.693,-0.297 1.05,-0.45c5.004,-2.139 10.012,-4.173 15.125,-5.873c1.417,-0.475 2.829,-0.968 4.242,-1.461c7.96,-2.749 15.963,-5.009 24.055,-7.053c0.925,-0.234 1.85,-0.47 2.775,-0.706c7.393,-1.887 14.766,-3.684 22.251,-4.904c2.339,-0.402 4.649,-0.917 6.964,-1.493c5.871,-1.453 11.766,-2.454 17.704,-3.372c0.532,-0.083 1.065,-0.166 1.613,-0.251c3.279,-0.51 6.559,-1.009 9.84,-1.501c1.385,-0.208 2.77,-0.418 4.154,-0.629c91.53,-13.813 91.53,-13.813 135.246,15.005Z" style="fill:#1a2a73;fill-rule:nonzero;"/><path d="M479.914,149.939c0.312,-0.001 0.625,-0.003 0.947,-0.004c4.627,0.002 9.779,0.172 13.572,3.893c0.594,0.582 0.594,0.582 1.201,1.176c1.948,2.083 3.834,4.241 5.696,6.443c1.388,1.641 2.825,3.205 4.284,4.746c0.618,0.725 0.618,0.725 1.062,1.836c-3.276,-0.474 -6.539,-0.959 -9.782,-1.718c-10.102,-2.308 -20.427,-2.357 -30.665,-2.315c-1.589,0.006 -3.179,0.003 -4.768,-0.004c-1.256,-0.004 -2.511,-0.003 -3.767,0c-0.864,0.001 -1.727,-0.002 -2.591,-0.006c-3.404,0.022 -6.667,0.377 -10.027,1.005c-1.731,0.306 -3.451,0.455 -5.195,0.584c-13.648,1.025 -27.477,4.538 -40.584,9.316c-1.026,0.37 -2.055,0.727 -3.085,1.082c-9.78,3.388 -19.525,7.199 -28.949,11.92c-1.029,0.512 -2.06,1.018 -3.093,1.517c-11.288,5.464 -22.144,11.796 -32.945,18.62c-0.516,0.324 -1.031,0.648 -1.563,0.982c-7.285,4.595 -14.543,9.564 -21.091,15.685c2.007,-0.737 3.593,-1.742 5.348,-3.158c2.929,-2.316 5.947,-4.349 9.033,-6.322c0.273,-0.175 0.547,-0.351 0.828,-0.531c2.033,-1.303 4.071,-2.593 6.112,-3.878c0.281,-0.177 0.562,-0.355 0.852,-0.537c11.722,-7.389 24.081,-15.105 36.848,-19.15c0.356,-0.115 0.712,-0.231 1.079,-0.349c3.087,-0.991 6.189,-1.901 9.293,-2.809c2.154,-0.636 4.293,-1.313 6.422,-2.072c7.453,-2.646 14.677,-4.35 22.405,-5.152c1.593,-0.173 3.186,-0.349 4.778,-0.525c0.387,-0.042 0.773,-0.084 1.172,-0.128c2.901,-0.323 5.781,-0.764 8.669,-1.234c3.253,-0.49 6.518,-0.803 9.783,-1.133c1.029,-0.105 2.058,-0.21 3.088,-0.317c0.632,-0.066 1.264,-0.13 1.896,-0.193c1.311,-0.135 2.604,-0.301 3.904,-0.56c2.156,-0.351 4.296,-0.483 6.468,-0.59c0.464,-0.023 0.929,-0.047 1.407,-0.071c5.788,-0.267 11.576,-0.282 17.367,-0.292c0.593,-0.002 1.187,-0.003 1.78,-0.005c2.78,-0.008 5.561,-0.013 8.341,-0.015c3.18,-0.003 6.361,-0.012 9.541,-0.028c2.484,-0.012 4.969,-0.018 7.453,-0.018c1.474,-0.001 2.947,-0.005 4.421,-0.014c1.637,-0.01 3.274,-0.008 4.912,-0.005c0.478,-0.005 0.956,-0.01 1.449,-0.016c2.993,0.021 5.53,0.596 8.343,1.88l0,0.556l-26.207,0c3.298,1.1 3.298,1.1 6.663,2.222c5.548,2.114 11.017,4.51 16.407,7.188c0.433,0.206 0.867,0.411 1.313,0.623c3.246,1.663 5.233,4.008 7.598,7.189c0.808,0.909 1.641,1.73 2.499,2.569c1.668,1.67 3.183,3.386 4.66,5.31c1.422,1.715 2.99,3.207 4.546,4.727c1.309,1.427 2.319,2.918 3.397,4.616c-4.18,-0.918 -8.288,-1.983 -12.389,-3.353c-1.911,-0.6 -3.847,-0.971 -5.792,-1.363c-2.076,-0.433 -4.134,-0.959 -6.194,-1.499c-0.673,-0.176 -0.673,-0.176 -1.36,-0.355c-3.761,-0.994 -7.503,-2.083 -11.244,-3.187c-7.243,-2.128 -14.422,-4.01 -21.793,-5.312c-0.494,-0.088 -0.989,-0.176 -1.498,-0.267c-8.725,-1.478 -17.399,-2.061 -26.199,-2.053c-1.021,-0.002 -2.042,-0.005 -3.064,-0.007c-2.124,-0.004 -4.249,-0.004 -6.373,-0.001c-2.15,0.003 -4.301,-0.001 -6.451,-0.011c-16.608,-0.119 -16.608,-0.119 -33.12,1.853c-1.258,0.204 -2.517,0.397 -3.776,0.59c-1.354,0.229 -2.702,0.479 -4.047,0.78c-2.32,0.513 -4.612,0.929 -6.962,1.149c-11.046,1.043 -21.552,4.54 -32.049,8.885c-2.978,1.225 -6,2.276 -9.015,3.348c-2.13,0.765 -4.22,1.571 -6.285,2.575c-1.125,0.539 -2.259,1.037 -3.396,1.536c-5.991,2.669 -11.806,5.642 -17.589,8.95c-0.328,0.187 -0.656,0.374 -0.993,0.567c-0.93,0.533 -1.858,1.068 -2.786,1.605c-0.28,0.162 -0.561,0.324 -0.849,0.49c-1.303,0.698 -1.303,0.698 -2.423,1.747c1.917,-0.373 3.609,-1.207 5.382,-2.155c0.628,-0.33 1.257,-0.66 1.885,-0.99c0.327,-0.173 0.655,-0.345 0.992,-0.523c8.645,-4.551 17.323,-8.597 26.4,-11.594c1.316,-0.442 2.622,-0.925 3.929,-1.405c7.925,-2.819 15.918,-4.877 24.011,-6.777c1.265,-0.305 2.523,-0.639 3.781,-0.991c4.894,-1.363 9.761,-2.296 14.745,-2.97c1.2,-0.163 2.399,-0.335 3.597,-0.508c2.553,-0.361 5.109,-0.68 7.667,-0.977c0.465,-0.054 0.929,-0.108 1.408,-0.163c9.44,-1.051 18.844,-1.102 28.312,-1.056c1.578,0.006 3.156,0.006 4.735,0.006c10.856,0 21.523,0.319 32.311,1.943c0.629,0.094 0.629,0.094 1.271,0.189c11.602,1.734 22.849,4.643 34.227,7.918c1.636,0.471 3.273,0.935 4.911,1.394c1.327,0.372 2.654,0.748 3.981,1.123c0.467,0.13 0.934,0.26 1.416,0.395c0.424,0.121 0.848,0.242 1.284,0.367c0.542,0.153 0.542,0.153 1.095,0.309c0.997,0.359 1.847,0.847 2.757,1.464c-4.958,-0.208 -9.893,-0.454 -14.825,-1.146c-3.955,-0.552 -7.851,-0.637 -11.826,-0.521c0.312,0.081 0.624,0.161 0.946,0.244c6.705,1.75 13.216,3.79 19.703,6.538c1.213,0.478 2.436,0.863 3.67,1.249c3.478,1.177 5.619,3.686 8.079,6.829c0.276,0.349 0.552,0.699 0.837,1.059c1.574,2.004 3.102,4.036 4.552,6.183c1.53,2.196 3.139,4.302 4.737,6.42c1.895,2.528 1.895,2.528 1.895,3.143c-2.795,0.17 -5.326,-0.472 -8.051,-1.215c-0.466,-0.124 -0.931,-0.248 -1.411,-0.376c-3.874,-1.043 -7.73,-2.173 -11.58,-3.346c-2.012,-0.612 -4.031,-1.175 -6.054,-1.73c0.376,0.137 0.752,0.274 1.139,0.415c1.421,0.52 2.842,1.043 4.262,1.569c0.61,0.225 1.219,0.448 1.83,0.671c5.279,1.923 10.298,4.325 15.229,7.381c0.304,0.181 0.608,0.362 0.92,0.548c2.518,1.558 3.367,2.683 4.332,5.945c0.196,0.786 0.389,1.573 0.578,2.361c0.1,0.395 0.2,0.791 0.303,1.198c0.472,1.923 0.724,3.439 0.724,5.469c-1.939,-0.247 -3.469,-0.749 -5.24,-1.731c-2.132,-1.072 -4.359,-1.822 -6.558,-2.644c-3.175,-1.2 -6.33,-2.407 -9.439,-3.854c-2.322,-1.07 -4.629,-1.819 -7.046,-2.472c-3.06,-0.85 -6.076,-1.933 -9.1,-2.958c-18.655,-6.305 -37.743,-10.631 -56.783,-14.674c-0.559,-0.119 -1.118,-0.239 -1.694,-0.362c-23.795,-5.022 -48.074,-7.646 -72.198,-7.561c-1.807,0.006 -3.613,0.003 -5.42,-0.004c-7.633,-0.023 -15.243,0.14 -22.866,0.652c-0.337,0.022 -0.674,0.044 -1.022,0.067c-17.986,1.211 -35.655,6.386 -51.523,17.196c-1.553,1.057 -3.074,2.025 -4.739,2.789c0.651,-1.906 1.493,-3.063 2.693,-4.479c1.521,-1.854 2.893,-3.759 4.22,-5.833c1.435,-2.241 2.92,-4.299 4.584,-6.274c0.841,-1.065 1.613,-2.159 2.391,-3.294c1.58,-2.274 3.274,-4.331 5.046,-6.369c0.309,-0.359 0.619,-0.717 0.938,-1.087c0.629,-0.729 1.259,-1.457 1.889,-2.184c0.812,-0.941 1.617,-1.888 2.42,-2.841c2.867,-3.385 5.838,-6.498 8.962,-9.505c1.389,-1.341 2.725,-2.749 4.058,-4.175c18.904,-19.834 46.863,-41.462 71.624,-45.069c1.003,0.252 1.003,0.252 1.777,0.556c-2.95,1.61 -5.889,3.199 -8.911,4.583c-10.528,5.008 -20.483,12.199 -30.177,19.306c-0.391,0.286 -0.782,0.572 -1.185,0.867c-5.524,4.061 -10.886,8.398 -16.193,12.883c-0.287,0.242 -0.575,0.484 -0.871,0.734c-3.951,3.335 -7.763,6.832 -11.511,10.516c-0.629,0.614 -1.258,1.227 -1.888,1.84c-0.466,0.454 -0.466,0.454 -0.94,0.918c-0.971,0.939 -1.945,1.871 -2.922,2.799c-3.235,3.078 -6.449,6.171 -9.581,9.412c-2.972,3.074 -5.995,6.056 -9.099,8.919c2.277,-1.565 4.368,-3.3 6.468,-5.208c6.631,-5.935 13.585,-11.32 20.627,-16.458c0.338,-0.247 0.675,-0.495 1.023,-0.75c6.076,-4.436 12.255,-8.583 18.521,-12.584c0.483,-0.309 0.483,-0.309 0.976,-0.624c1.716,-1.094 3.438,-2.169 5.167,-3.229c0.689,-0.423 1.377,-0.848 2.065,-1.274c25.633,-15.857 53.019,-25.884 80.956,-32.952c0.9,-0.228 1.8,-0.458 2.699,-0.688c13.342,-3.369 27.207,-6.002 40.836,-5.99Z" style="fill:#f2d2a6;fill-rule:nonzero;"/><path d="M74.07,150.147c0.534,-0.007 1.068,-0.014 1.618,-0.021c8.828,-0.017 17.567,1.446 26.282,3.076c0.468,0.087 0.935,0.173 1.417,0.263c6.849,1.273 13.654,2.613 20.403,4.564c0.336,0.097 0.671,0.193 1.017,0.293c2.837,0.818 5.672,1.648 8.505,2.485c0.394,0.116 0.789,0.233 1.195,0.353c8.058,2.389 15.972,5.117 23.818,8.432c0.347,0.146 0.694,0.292 1.052,0.442c23.502,9.883 46.273,22.36 67.463,38.551c0.522,0.397 0.522,0.397 1.054,0.801c9.161,6.976 18.114,14.339 26.93,21.977c-2.111,-2.324 -4.288,-4.478 -6.552,-6.562c-2.505,-2.327 -4.949,-4.719 -7.352,-7.211c-2.044,-2.09 -4.148,-4.083 -6.247,-6.086c-0.701,-0.672 -1.398,-1.35 -2.095,-2.029c-19.046,-18.518 -39.956,-34.201 -61.844,-46.862c-0.44,-0.256 -0.88,-0.511 -1.333,-0.775c-2.512,-1.439 -5.034,-2.728 -7.641,-3.872c-1.12,-0.5 -2.222,-1.043 -3.324,-1.603l0,-1.111c22.985,6.474 44.635,19.408 63.962,36.111c0.301,0.259 0.601,0.519 0.911,0.786c5.55,4.813 10.809,10.059 15.938,15.549c1.21,1.291 2.449,2.532 3.694,3.77c7.917,8.088 15.924,17.403 22.173,27.526c1.13,1.748 2.41,3.263 3.73,4.783c0.637,0.92 0.637,0.92 0.637,2.587c0.426,0.241 0.426,0.241 0.861,0.486c0.916,0.625 0.916,0.625 1.36,1.736c-1.548,-0.722 -2.896,-1.577 -4.293,-2.678c-2.256,-1.72 -4.567,-3.132 -6.979,-4.475c-0.422,-0.236 -0.844,-0.473 -1.279,-0.717c-6.956,-3.865 -13.772,-7.248 -21.207,-9.353c-0.382,-0.115 -0.764,-0.23 -1.158,-0.349c-23.393,-6.959 -49.627,-6.166 -73.49,-3.716c-1.936,0.194 -3.874,0.36 -5.812,0.523c-23.681,2.033 -47.67,5.619 -70.851,12.141c-1.742,0.483 -3.49,0.927 -5.238,1.375c-8.18,2.108 -16.331,4.24 -24.414,6.88c-2.024,0.647 -4.06,1.232 -6.094,1.827c-6.178,1.737 -6.178,1.737 -12.127,4.373c-1.602,0.843 -3.15,1.393 -4.836,1.912c-2.263,0.721 -4.396,1.588 -6.545,2.73c-1.891,0.92 -3.819,1.679 -5.754,2.444c-0.378,0.15 -0.756,0.301 -1.145,0.455c-2.739,1.072 -2.739,1.072 -3.741,1.072c0.484,-5.01 1.246,-10.565 4.279,-14.167c1.639,-1.249 3.265,-2.182 5.049,-3.056c0.392,-0.195 0.783,-0.39 1.187,-0.591c7.023,-3.433 14.243,-6.168 21.467,-8.854c-0.639,0.205 -0.639,0.205 -1.292,0.415c-14.317,4.588 -14.317,4.588 -21.112,6.286c-0.448,0.113 -0.897,0.226 -1.358,0.342c-1.89,0.457 -3.623,0.787 -5.554,0.734c1.503,-2.652 3.07,-5.036 4.941,-7.292c0.796,-0.995 1.536,-2.02 2.272,-3.086c0.407,-0.584 0.407,-0.584 0.822,-1.179c0.558,-0.803 1.115,-1.607 1.672,-2.412c4.195,-5.978 7.674,-9.534 13.917,-11.235c1.432,-0.403 2.847,-0.869 4.265,-1.344c2.517,-0.84 5.037,-1.657 7.563,-2.451c0.951,-0.299 1.901,-0.602 2.85,-0.908c3.219,-1.029 6.381,-1.734 9.67,-2.316c-6.302,0.407 -12.592,0.954 -18.885,1.541c-1.221,0.113 -2.442,0.225 -3.662,0.337c-0.367,0.035 -0.734,0.069 -1.112,0.105c-2.04,0.185 -4.055,0.274 -6.101,0.24c1.504,-1.254 2.65,-1.576 4.411,-2.075c0.308,-0.088 0.616,-0.176 0.934,-0.267c1.012,-0.288 2.026,-0.571 3.039,-0.853c0.705,-0.199 1.41,-0.397 2.114,-0.596c6.404,-1.799 12.823,-3.503 19.262,-5.098c0.335,-0.085 0.671,-0.171 1.016,-0.259c5.572,-1.419 11.126,-2.493 16.78,-3.257c1.216,-0.164 2.432,-0.336 3.647,-0.508c2.058,-0.288 4.116,-0.559 6.176,-0.818c0.83,-0.105 1.66,-0.212 2.49,-0.322c7.641,-0.996 15.245,-1.103 22.917,-1.056c1.254,0.006 2.508,0.006 3.762,0.006c10.43,0 20.792,0.38 31.18,1.589c1.265,0.147 2.53,0.29 3.796,0.431c2.43,0.274 4.859,0.564 7.287,0.86c0.366,0.044 0.733,0.088 1.11,0.134c4.336,0.531 8.546,1.284 12.798,2.505c1.069,0.297 2.139,0.594 3.208,0.89c0.543,0.151 1.086,0.303 1.645,0.458c2.809,0.769 5.627,1.477 8.444,2.193c4.439,1.139 8.832,2.376 13.214,3.819c0.49,0.155 0.979,0.311 1.483,0.471c4.482,1.445 8.854,3.205 13.23,5.085c0.364,0.155 0.727,0.311 1.102,0.47c5.588,2.392 11.07,5.011 16.494,7.934c2.814,1.515 5.595,2.823 8.555,3.817c-1.943,-1.306 -3.888,-2.603 -5.837,-3.894c-0.651,-0.435 -1.299,-0.879 -1.944,-1.328c-2.859,-1.92 -5.889,-3.179 -8.961,-4.453c-0.367,-0.154 -0.733,-0.308 -1.111,-0.466c-0.488,-0.2 -0.488,-0.2 -0.986,-0.405c-0.988,-0.486 -1.893,-1.03 -2.835,-1.638c-1.771,-1.125 -3.561,-1.957 -5.447,-2.727c-0.332,-0.138 -0.664,-0.276 -1.006,-0.419c-0.699,-0.291 -1.399,-0.579 -2.1,-0.867c-1.045,-0.429 -2.088,-0.863 -3.131,-1.298c-7.902,-3.279 -15.896,-6.089 -23.948,-8.735c-0.809,-0.267 -1.617,-0.536 -2.424,-0.809c-4.16,-1.408 -8.21,-2.143 -12.507,-2.563c-2.78,-0.274 -5.517,-0.686 -8.271,-1.232c-3.463,-0.685 -6.924,-1.224 -10.411,-1.684c-2.386,-0.317 -4.763,-0.713 -7.142,-1.113c-5.613,-0.823 -11.218,-0.92 -16.862,-0.946c-0.624,-0.003 -0.624,-0.003 -1.26,-0.007c-2.214,-0.012 -4.428,-0.019 -6.643,-0.025c-1.784,-0.005 -3.569,-0.016 -5.353,-0.034c-16.358,-0.16 -33.456,0.096 -49.495,4.643c-0.417,0.117 -0.834,0.234 -1.264,0.355c-1.394,0.397 -2.785,0.801 -4.177,1.207c-1.027,0.297 -2.053,0.595 -3.08,0.892c-1.455,0.422 -2.91,0.844 -4.364,1.269c-4.849,1.413 -9.699,2.713 -14.595,3.843c-2.329,0.544 -4.596,1.203 -6.871,2.034c-4.169,1.407 -8.482,2.238 -12.732,3.177c0.511,-0.639 1.022,-1.278 1.534,-1.916c0.47,-0.589 0.937,-1.181 1.402,-1.775c1.602,-2.036 3.256,-3.953 4.985,-5.818c1.073,-1.166 2.129,-2.354 3.184,-3.546c1.909,-2.153 3.83,-4.286 5.774,-6.389c0.593,-0.768 0.593,-0.768 1.197,-1.552c2.624,-2.805 6.126,-4 9.324,-5.462c0.669,-0.313 1.337,-0.627 2.005,-0.942c5.395,-2.529 10.739,-4.736 16.345,-6.489c-8.208,-0.183 -16.417,-0.367 -24.874,-0.556c1.974,-2.47 4.783,-2.353 7.42,-2.373c0.437,0.002 0.874,0.004 1.325,0.007c0.469,-0.002 0.937,-0.004 1.42,-0.006c1.55,-0.005 3.1,-0.002 4.651,0.002c1.093,-0.001 2.185,-0.002 3.278,-0.003c2.298,-0.002 4.596,0.001 6.895,0.006c2.896,0.006 5.793,0.003 8.689,-0.004c12.345,-0.023 24.633,0.106 36.948,1.26c0.468,0.042 0.935,0.084 1.417,0.127c6.514,0.586 12.989,1.588 19.472,2.563c5.102,0.765 10.18,1.412 15.311,1.789c4.811,0.373 9.331,1.219 13.992,2.743c0.452,0.147 0.905,0.295 1.371,0.446c2.97,0.974 5.932,1.981 8.892,3.001c1.647,0.566 3.298,1.112 4.95,1.657c1,0.335 1.999,0.67 2.998,1.007c0.485,0.162 0.97,0.324 1.47,0.49c7.238,2.491 14.166,5.826 21.073,9.475c0.458,0.241 0.458,0.241 0.924,0.486c4.26,2.246 8.405,4.703 12.524,7.327c1.434,0.908 2.878,1.793 4.321,2.68c6.069,3.746 12.074,7.545 17.919,11.821c0.573,0.418 0.573,0.418 1.158,0.844c0.328,0.243 0.656,0.486 0.995,0.737c0.898,0.575 1.706,0.891 2.691,1.141c-19.47,-16.082 -40.708,-28.466 -62.505,-38.736c-0.311,-0.146 -0.621,-0.293 -0.941,-0.444c-0.842,-0.396 -1.685,-0.791 -2.528,-1.185c-1.079,-0.522 -2.139,-1.06 -3.2,-1.636c-1.53,-0.82 -3.044,-1.418 -4.644,-1.993c-0.313,-0.113 -0.627,-0.226 -0.95,-0.343c-0.719,-0.259 -1.438,-0.517 -2.158,-0.773c-1.426,-0.509 -2.85,-1.022 -4.275,-1.536c-3.135,-1.128 -6.273,-2.245 -9.413,-3.355c-0.338,-0.12 -0.676,-0.239 -1.024,-0.363c-1.872,-0.659 -3.752,-1.274 -5.639,-1.86c-0.389,-0.121 -0.779,-0.243 -1.18,-0.368c-10.52,-3.248 -21.126,-5.451 -31.884,-6.993c-0.321,-0.046 -0.642,-0.092 -0.972,-0.14c-2.126,-0.303 -4.254,-0.577 -6.385,-0.832c-0.493,-0.059 -0.985,-0.119 -1.493,-0.18c-5.376,-0.545 -10.771,-0.479 -16.161,-0.479c-1.698,-0.001 -3.395,-0.011 -5.092,-0.022c-10.166,-0.03 -20.356,0.309 -30.361,2.729c-1.11,0.261 -2.221,0.518 -3.333,0.77c-0.467,0.112 -0.934,0.224 -1.415,0.34c-1.166,0.167 -1.898,0.09 -2.997,-0.381c2.646,-2.991 5.293,-5.978 7.995,-8.889c0.634,-0.692 0.634,-0.692 1.28,-1.398c5.742,-6.197 9.884,-7.035 17.403,-7.04Z" style="fill:#f2d2a6;fill-rule:nonzero;"/><path d="M103.72,130.668c0.303,0.007 0.606,0.014 0.918,0.021c3.733,0.108 7.428,0.435 11.116,1.181c3.685,0.722 7.385,1.29 11.087,1.853c3.184,0.487 6.288,1.023 9.387,2.083c0.859,0.188 1.719,0.362 2.582,0.521c2.102,0.424 4.103,1.018 6.147,1.753c1.568,0.531 3.144,0.989 4.727,1.443c4.267,1.227 8.423,2.689 12.584,4.391c2.173,0.887 4.367,1.639 6.578,2.363c1.871,0.756 3.652,1.7 5.461,2.659c1.935,1.011 3.891,1.95 5.848,2.894c15.187,7.339 29.605,16.507 43.133,27.866c0.304,0.254 0.608,0.508 0.921,0.77c4.108,3.447 8.078,7.063 11.96,10.896c0.382,0.37 0.764,0.739 1.157,1.12c2.575,2.519 4.981,5.222 7.372,8.006c0.97,1.116 1.951,2.183 2.964,3.236c4.943,5.374 9.205,11.906 13.381,18.194c0.221,0.332 0.442,0.664 0.67,1.006c14.433,21.815 14.433,21.815 14.433,27.882c1.357,-1.469 2.065,-3.215 2.915,-5.174c1.895,-4.255 4.095,-8.143 6.413,-12.049c0.432,-0.737 0.864,-1.474 1.296,-2.211c2.827,-4.796 5.767,-9.431 8.92,-13.9c0.284,-0.403 0.567,-0.807 0.859,-1.222c2.429,-3.418 4.952,-6.705 7.536,-9.937c0.653,-0.818 1.303,-1.641 1.952,-2.464c2.768,-3.483 5.671,-6.663 8.752,-9.71c0.557,-0.569 1.114,-1.14 1.669,-1.712c11.712,-11.924 24.815,-21.715 38.368,-30.004c1.088,-0.666 2.155,-1.355 3.224,-2.07c11.254,-7.503 24.173,-13.197 36.454,-17.346c1.261,-0.429 2.513,-0.879 3.765,-1.345c4.204,-1.556 8.352,-2.904 12.673,-3.832c1.365,-0.31 2.673,-0.698 4.01,-1.155c11.275,-3.615 23.553,-5.446 35.201,-5.625c0.509,-0.015 1.018,-0.03 1.543,-0.045c5.308,0.029 9.702,2.678 14.281,5.809c0.356,0.239 0.711,0.477 1.078,0.723c0.721,0.484 1.442,0.97 2.162,1.458c1.271,0.861 2.545,1.713 3.82,2.563c0.558,0.373 1.117,0.746 1.674,1.121c1.442,0.966 2.895,1.893 4.369,2.781c1.388,0.903 1.388,0.903 1.832,2.014c-0.566,0.075 -1.132,0.151 -1.715,0.229c-2.137,0.286 -4.274,0.576 -6.41,0.867c-0.918,0.124 -1.836,0.248 -2.754,0.37c-4.99,0.665 -9.933,1.418 -14.867,2.571c-1.855,0.431 -3.717,0.783 -5.583,1.124c-7.663,1.416 -15.243,3.085 -22.806,5.187c-0.564,0.157 -0.564,0.157 -1.139,0.316c-7.082,1.975 -14.136,4.12 -21.125,6.559c-0.411,0.143 -0.823,0.286 -1.247,0.433c-7.59,2.662 -14.998,5.812 -22.364,9.313c-1.14,0.541 -2.281,1.078 -3.423,1.609c-11.329,5.266 -22.273,11.363 -32.901,18.583c-0.89,0.599 -1.787,1.181 -2.687,1.757c-7.743,4.979 -15.204,10.685 -22.579,16.465c-0.501,0.39 -0.501,0.39 -1.011,0.788c-1.889,1.498 -3.603,3.102 -5.29,4.941c-0.293,-0.183 -0.586,-0.367 -0.888,-0.556c2.462,-2.854 5.015,-5.451 7.719,-7.936c1.133,-1.052 2.246,-2.13 3.351,-3.226c4.7,-4.658 9.524,-8.974 14.525,-13.108c0.371,-0.308 0.741,-0.616 1.123,-0.933c7.231,-5.999 14.601,-11.65 22.141,-17.019c0.459,-0.327 0.918,-0.655 1.392,-0.992c6.06,-4.293 12.277,-8.129 18.597,-11.785c0.413,-0.24 0.825,-0.48 1.25,-0.728c2.467,-1.422 4.943,-2.728 7.495,-3.89c0.317,-0.146 0.634,-0.293 0.96,-0.444c0.762,-0.352 1.525,-0.701 2.288,-1.049c-11.198,2.431 -22.18,7.862 -32.425,13.889c-0.313,0.184 -0.625,0.367 -0.947,0.556c-2.08,1.235 -4.122,2.55 -6.16,3.888c-0.581,0.377 -0.581,0.377 -1.173,0.761c-14.221,9.248 -26.977,20.86 -39.247,33.684c-0.285,0.297 -0.57,0.594 -0.864,0.9c-3.203,3.345 -6.243,6.793 -9.16,10.526c-0.896,1.121 -1.801,2.146 -2.774,3.158c-4.289,4.596 -7.972,10.175 -11.6,15.567c-1.369,2.026 -2.785,3.913 -4.382,5.667c-0.629,0.844 -0.629,0.844 -0.661,2.17c-0.473,2.159 -1.699,2.989 -3.123,4.164c-0.259,0.231 -0.517,0.461 -0.783,0.699c-1.885,1.602 -1.885,1.602 -3.14,1.565c-1.003,-0.642 -1.865,-1.383 -2.767,-2.229c-6.451,-5.768 -13.585,-9.856 -21.154,-12.743c1.333,-1.111 1.333,-1.111 2.588,-0.991c1.439,0.445 2.64,1.046 3.974,1.851c0.715,0.43 0.715,0.43 1.444,0.868c0.491,0.301 0.983,0.602 1.489,0.911c0.488,0.292 0.976,0.584 1.478,0.885c2.669,1.617 5.204,3.328 7.683,5.365c-1.045,-0.856 -1.707,-1.514 -2.332,-2.882c-0.725,-1.458 -1.408,-2.393 -2.387,-3.576c-1.352,-1.637 -2.541,-3.327 -3.701,-5.178c-2.257,-3.481 -4.734,-6.633 -7.281,-9.782c-0.765,-0.946 -1.525,-1.897 -2.286,-2.848c-2.517,-3.138 -5.057,-6.199 -7.776,-9.067c-0.512,-0.554 -1.024,-1.108 -1.536,-1.662c-3.152,-3.393 -6.321,-6.754 -9.569,-10.004c-0.277,-0.279 -0.553,-0.558 -0.838,-0.846c-5.289,-5.317 -10.78,-10.117 -16.485,-14.71c-0.552,-0.45 -0.552,-0.45 -1.115,-0.909c-9.455,-7.687 -19.587,-14.177 -29.978,-19.647c-0.364,-0.196 -0.727,-0.391 -1.102,-0.592c-7.532,-4.02 -15.34,-6.849 -23.203,-9.652c-2.251,-0.808 -2.251,-0.808 -3.234,-1.423l0,1.111c0.307,0.075 0.615,0.15 0.932,0.228c3.613,0.994 6.769,2.72 10.073,4.739c1.073,0.639 2.155,1.244 3.242,1.843c5.547,3.063 10.874,6.467 16.161,10.179c1.034,0.722 2.072,1.431 3.114,2.134c14.552,9.86 28.603,21.4 41.46,34.444c1.624,1.647 3.289,3.214 4.971,4.766c0.963,0.902 1.925,1.805 2.887,2.708c0.463,0.434 2.089,1.96 2.443,2.292c-0.293,0.183 -0.586,0.367 -0.888,0.556c-1.943,-1.586 -3.862,-3.178 -5.691,-4.965c-1.76,-1.67 -3.623,-3.017 -5.54,-4.384c-1.674,-1.208 -3.309,-2.491 -4.947,-3.774c-7.105,-5.562 -14.373,-10.508 -21.892,-15.134c-0.891,-0.554 -1.776,-1.12 -2.659,-1.695c-10.036,-6.515 -20.63,-11.826 -31.228,-16.714c-0.399,-0.185 -0.798,-0.369 -1.209,-0.56c-14.821,-6.809 -29.726,-12.124 -45.237,-15.75c-2.657,-0.621 -5.312,-1.252 -7.967,-1.885c-0.499,-0.117 -0.997,-0.234 -1.511,-0.355c-0.459,-0.109 -0.918,-0.218 -1.39,-0.331c-0.406,-0.096 -0.811,-0.192 -1.229,-0.29c-0.978,-0.274 -0.978,-0.274 -1.866,-0.83c-1.175,-0.205 -2.347,-0.39 -3.526,-0.556c-3.405,-0.482 -3.405,-0.482 -4.914,-1.111c-0.778,-0.144 -1.559,-0.268 -2.341,-0.38c-0.465,-0.068 -0.93,-0.136 -1.409,-0.205c-0.494,-0.07 -0.988,-0.141 -1.497,-0.213c-3.098,-0.451 -6.189,-0.906 -9.272,-1.493c-2.497,-0.466 -4.983,-0.687 -7.503,-0.883c-2.309,-0.241 -4.575,-0.733 -6.85,-1.27c1.099,-1.557 2.289,-2.386 3.758,-3.336c0.489,-0.317 0.979,-0.635 1.483,-0.962c0.529,-0.339 1.059,-0.677 1.588,-1.015c0.542,-0.348 1.084,-0.696 1.626,-1.045c3.318,-2.126 6.65,-4.218 10.006,-6.247c0.361,-0.221 0.721,-0.441 1.093,-0.669c3.596,-2.14 7.001,-3.636 11.011,-3.533Z" style="fill:#fce8c5;fill-rule:nonzero;"/><path d="M169.681,76.189c0.63,0.124 0.63,0.124 1.272,0.25c4.415,1.246 8.592,3.145 12.72,5.445c0.476,0.265 0.952,0.53 1.442,0.803c14.516,8.219 27.975,19.433 39.95,32.566c0.336,0.358 0.671,0.716 1.017,1.085c2.973,3.187 5.715,6.619 8.266,10.334c0.746,1.086 1.499,2.164 2.256,3.238c3.111,4.428 6.103,8.924 8.894,13.676c0.203,0.345 0.406,0.689 0.615,1.044c7.076,12.09 13.571,25.118 18.179,38.979c0.684,2.034 1.439,4.018 2.206,6.005c1.789,4.723 3.226,9.584 4.652,14.492c0.252,0.861 0.505,1.722 0.758,2.584c0.464,1.579 0.926,3.158 1.386,4.738c0.644,2.206 1.303,4.404 1.965,6.602c0.066,-3.072 -0.181,-5.961 -0.555,-8.995c-0.089,-0.738 -0.089,-0.738 -0.18,-1.49c-0.196,-1.61 -0.396,-3.218 -0.598,-4.827c-0.104,-0.833 -0.104,-0.833 -0.21,-1.682c-1.392,-11.095 -3.132,-22.055 -5.12,-33.005c-0.166,-0.919 -0.331,-1.837 -0.497,-2.756c-1.787,-9.874 -3.609,-19.719 -6.142,-29.342c-0.348,-1.333 -0.691,-2.668 -1.028,-4.006c-4.645,-18.44 -10.149,-36.995 -19.557,-52.564c-0.661,-1.158 -1.177,-2.263 -1.648,-3.554c5.65,2.647 8.161,8.243 11.105,14.444c0.172,0.356 0.343,0.712 0.52,1.079c6.464,13.475 11.472,28.136 14.582,43.366c0.12,0.568 0.12,0.568 0.242,1.147c6.053,28.746 8.734,58.199 10.863,87.742c0.15,-0.607 0.299,-1.215 0.454,-1.841c0.2,-0.806 0.4,-1.613 0.6,-2.419c0.098,-0.399 0.197,-0.798 0.298,-1.21c0.65,-2.616 1.382,-5.158 2.225,-7.688c0.432,-1.32 0.818,-2.651 1.199,-3.995c8.451,-29.117 20.874,-59.124 38.954,-80.875c0.741,-0.927 1.404,-1.905 2.077,-2.91c6.141,-8.834 14.052,-15.774 21.709,-22.396c0.252,-0.22 0.504,-0.44 0.763,-0.667c8.142,-7.092 16.79,-12.746 25.888,-17.667c0.336,-0.182 0.672,-0.364 1.018,-0.551c3.847,-2.062 7.772,-3.862 11.864,-5.004c0.302,-0.089 0.605,-0.178 0.917,-0.27c3.006,-0.683 4.897,0.486 7.523,2.249c3.785,2.398 7.535,4.357 11.566,5.997c0.849,0.348 1.694,0.713 2.539,1.077c4.282,1.84 8.62,3.363 12.991,4.835l0,1.111c-0.38,0.089 -0.76,0.179 -1.151,0.271c-9.929,2.277 -9.929,2.277 -19.725,5.285c-0.432,0.15 -0.865,0.3 -1.31,0.455c-23.963,8.379 -45.358,24.658 -64.156,44.893c-0.677,0.72 -1.367,1.422 -2.057,2.123c-3.843,3.931 -7.341,8.281 -10.848,12.667c-0.252,0.315 -0.505,0.63 -0.765,0.955c-2.737,3.424 -5.421,6.875 -7.924,10.572c-0.421,0.602 -0.844,1.203 -1.267,1.803c-3.465,4.968 -6.695,10.128 -9.838,15.419c-0.244,0.41 -0.487,0.82 -0.738,1.242c-9.209,15.574 -16.606,32.121 -22.804,49.869c-1.471,-1.687 -2.042,-3.615 -2.748,-5.903c-0.279,-0.866 -0.559,-1.731 -0.84,-2.595c-0.143,-0.439 -0.286,-0.879 -0.433,-1.331c-3.916,-11.927 -9.399,-23.2 -15.413,-33.65c-0.562,-0.98 -1.116,-1.966 -1.668,-2.955c-5.205,-9.284 -10.989,-17.971 -17.098,-26.343c-0.358,-0.499 -0.716,-0.998 -1.084,-1.513c-4.588,-6.354 -9.299,-12.641 -14.691,-17.938c-1.101,-1.102 -2.126,-2.264 -3.158,-3.466c-7.845,-8.913 -16.926,-16.27 -25.929,-23.194c-0.556,-0.43 -0.556,-0.43 -1.124,-0.869c-4.844,-3.736 -9.724,-7.195 -14.867,-10.242c-0.486,-0.295 -0.972,-0.59 -1.473,-0.894c-9.82,-5.847 -20.233,-9.198 -30.857,-11.91c-0.496,-0.127 -0.991,-0.254 -1.502,-0.384c-0.436,-0.109 -0.873,-0.218 -1.322,-0.331c-1.345,-0.393 -2.626,-0.927 -3.933,-1.482c-0.636,-0.119 -1.275,-0.216 -1.916,-0.278c-0.541,-0.092 -1.081,-0.183 -1.638,-0.278c-0.147,-0.367 -0.293,-0.733 -0.444,-1.111c0.436,-0.128 0.871,-0.256 1.32,-0.388c3.914,-1.174 7.726,-2.547 11.528,-4.213c0.998,-0.432 1.999,-0.849 3.001,-1.265c5.374,-2.257 13.456,-9.331 18.935,-8.197Z" style="fill:#fdeac8;fill-rule:nonzero;"/><path d="M479.914,149.939c0.312,-0.001 0.625,-0.003 0.947,-0.004c4.627,0.002 9.779,0.172 13.572,3.893c0.594,0.582 0.594,0.582 1.201,1.176c1.948,2.083 3.834,4.241 5.696,6.443c1.388,1.641 2.825,3.205 4.284,4.746c0.618,0.725 0.618,0.725 1.062,1.836c-3.276,-0.474 -6.539,-0.959 -9.782,-1.718c-10.102,-2.308 -20.427,-2.357 -30.665,-2.315c-1.589,0.006 -3.179,0.003 -4.768,-0.004c-1.256,-0.004 -2.511,-0.003 -3.767,0c-0.864,0.001 -1.727,-0.002 -2.591,-0.006c-3.404,0.022 -6.667,0.377 -10.027,1.005c-1.731,0.306 -3.451,0.455 -5.195,0.584c-13.648,1.025 -27.477,4.538 -40.584,9.316c-1.026,0.37 -2.055,0.727 -3.085,1.082c-9.78,3.388 -19.525,7.199 -28.949,11.92c-1.029,0.512 -2.06,1.018 -3.093,1.517c-11.288,5.464 -22.144,11.796 -32.945,18.62c-0.516,0.324 -1.031,0.648 -1.563,0.982c-7.285,4.595 -14.543,9.564 -21.091,15.685c2.007,-0.737 3.593,-1.742 5.348,-3.158c2.929,-2.316 5.947,-4.349 9.033,-6.322c0.273,-0.175 0.547,-0.351 0.828,-0.531c2.033,-1.303 4.071,-2.593 6.112,-3.878c0.281,-0.177 0.562,-0.355 0.852,-0.537c11.722,-7.389 24.081,-15.105 36.848,-19.15c0.356,-0.115 0.712,-0.231 1.079,-0.349c3.087,-0.991 6.189,-1.901 9.293,-2.809c2.154,-0.636 4.293,-1.313 6.422,-2.072c7.453,-2.646 14.677,-4.35 22.405,-5.152c1.593,-0.173 3.186,-0.349 4.778,-0.525c0.387,-0.042 0.773,-0.084 1.172,-0.128c2.901,-0.323 5.781,-0.764 8.669,-1.234c3.253,-0.49 6.518,-0.803 9.783,-1.133c1.029,-0.105 2.058,-0.21 3.088,-0.317c0.632,-0.066 1.264,-0.13 1.896,-0.193c1.311,-0.135 2.604,-0.301 3.904,-0.56c2.156,-0.351 4.296,-0.483 6.468,-0.59c0.464,-0.023 0.929,-0.047 1.407,-0.071c5.788,-0.267 11.576,-0.282 17.367,-0.292c0.593,-0.002 1.187,-0.003 1.78,-0.005c2.78,-0.008 5.561,-0.013 8.341,-0.015c3.18,-0.003 6.361,-0.012 9.541,-0.028c2.484,-0.012 4.969,-0.018 7.453,-0.018c1.474,-0.001 2.947,-0.005 4.421,-0.014c1.637,-0.01 3.274,-0.008 4.912,-0.005c0.478,-0.005 0.956,-0.01 1.449,-0.016c2.993,0.021 5.53,0.596 8.343,1.88l0,0.556l-26.207,0c3.298,1.1 3.298,1.1 6.663,2.222c5.548,2.114 11.017,4.51 16.407,7.188c0.433,0.206 0.867,0.411 1.313,0.623c3.246,1.663 5.233,4.008 7.598,7.189c0.808,0.909 1.641,1.73 2.499,2.569c1.668,1.67 3.183,3.386 4.66,5.31c1.422,1.715 2.99,3.207 4.546,4.727c1.309,1.427 2.319,2.918 3.397,4.616c-4.18,-0.918 -8.288,-1.983 -12.389,-3.353c-1.911,-0.6 -3.847,-0.971 -5.792,-1.363c-2.076,-0.433 -4.134,-0.959 -6.194,-1.499c-0.673,-0.176 -0.673,-0.176 -1.36,-0.355c-3.761,-0.994 -7.503,-2.083 -11.244,-3.187c-7.243,-2.128 -14.422,-4.01 -21.793,-5.312c-0.494,-0.088 -0.989,-0.176 -1.498,-0.267c-8.725,-1.478 -17.399,-2.061 -26.199,-2.053c-1.021,-0.002 -2.042,-0.005 -3.064,-0.007c-2.124,-0.004 -4.249,-0.004 -6.373,-0.001c-2.15,0.003 -4.301,-0.001 -6.451,-0.011c-16.608,-0.119 -16.608,-0.119 -33.12,1.853c-1.258,0.204 -2.517,0.397 -3.776,0.59c-1.354,0.229 -2.702,0.479 -4.047,0.78c-2.32,0.513 -4.612,0.929 -6.962,1.149c-11.046,1.043 -21.552,4.54 -32.049,8.885c-2.978,1.225 -6,2.276 -9.015,3.348c-2.13,0.765 -4.22,1.571 -6.285,2.575c-1.125,0.539 -2.259,1.037 -3.396,1.536c-8.288,3.693 -16.234,8.139 -24.196,12.804l0,1.667c-2.554,1.667 -2.554,1.667 -3.553,1.667l0,-1.111c-0.879,0.183 -1.759,0.367 -2.665,0.556c1.238,-1.672 2.544,-2.944 4.051,-4.199c0.902,-0.824 0.902,-0.824 1.827,-2.092c1.457,-1.763 3.006,-3.091 4.699,-4.473c0.345,-0.284 0.691,-0.569 1.047,-0.862c11.185,-9.154 22.668,-17.439 34.571,-25.041c0.321,-0.205 0.641,-0.41 0.972,-0.622c1.717,-1.095 3.44,-2.171 5.171,-3.231c0.689,-0.423 1.377,-0.848 2.065,-1.274c25.633,-15.857 53.019,-25.884 80.956,-32.952c0.9,-0.228 1.8,-0.458 2.699,-0.688c13.342,-3.369 27.207,-6.002 40.836,-5.99Z" style="fill:#f7d6a7;fill-rule:nonzero;"/><path d="M222.344,252.916c6.109,-0.394 10.609,-0.261 15.849,3.77c2.405,1.746 4.937,3.204 7.442,4.711c0.281,0.17 0.562,0.34 0.852,0.515c7.044,4.253 13.994,7.481 21.662,9.45c0.511,0.146 0.511,0.146 1.032,0.295c17.518,3.842 34.286,-6.4 49.178,-16.651c2.417,-1.591 4.246,-2.158 6.979,-2.116c0.357,0.003 0.713,0.005 1.081,0.008c4.335,0.075 8.661,0.455 12.986,0.806c4.365,0.354 8.727,0.626 13.099,0.801c0.411,0.018 0.823,0.035 1.246,0.053c0.523,0.02 0.523,0.02 1.057,0.04c1.129,0.084 2.243,0.214 3.367,0.361c2.34,0.301 4.679,0.479 7.028,0.631c0.922,0.062 1.844,0.125 2.766,0.188c0.485,0.033 0.969,0.065 1.468,0.099c12.054,0.813 24.096,1.817 36.139,2.859c3.522,0.304 7.044,0.595 10.566,0.876c0.462,0.037 0.923,0.074 1.399,0.112c2.129,0.17 4.259,0.339 6.389,0.504c4.317,0.341 8.622,0.767 12.929,1.27c4.169,0.486 8.342,0.896 12.517,1.286c0.382,0.036 0.763,0.072 1.157,0.109c4.869,0.457 9.735,0.879 14.615,1.084c1.857,0.08 3.661,0.271 5.505,0.583c2.188,0.314 4.398,0.36 6.597,0.47c0.376,0.021 0.752,0.042 1.14,0.063c0.336,0.017 0.671,0.034 1.017,0.051c1.062,0.105 1.062,0.105 2.281,0.372c1.446,0.288 2.861,0.445 4.322,0.562c0.569,0.047 1.137,0.093 1.723,0.142c0.303,0.024 0.606,0.048 0.918,0.073c0.974,0.078 1.947,0.157 2.921,0.237c1.405,0.116 2.81,0.23 4.215,0.345c11.708,0.953 23.41,1.974 35.106,3.144c0.902,0.09 1.805,0.18 2.707,0.27c1.677,0.168 3.354,0.336 5.03,0.506c0.731,0.074 0.731,0.074 1.476,0.149c2.632,0.27 5.254,0.589 7.878,0.971l0,7.222c-5.35,0.247 -10.635,-0.159 -15.963,-0.729c-0.353,-0.038 -0.706,-0.075 -1.069,-0.114c-0.36,-0.039 -0.72,-0.077 -1.092,-0.117c-5.116,-0.547 -10.233,-1.016 -15.357,-1.436c-6.477,-0.533 -12.95,-1.122 -19.423,-1.745c-0.567,-0.054 -0.567,-0.054 -1.145,-0.11c-3.458,-0.332 -6.916,-0.664 -10.374,-1.003c-8.442,-0.827 -16.881,-1.572 -25.337,-2.134c-5.794,-0.385 -11.581,-0.855 -17.368,-1.362c-1.607,-0.141 -3.214,-0.279 -4.821,-0.417c-5.284,-0.457 -10.564,-0.95 -15.841,-1.511c-5.76,-0.611 -11.523,-1.152 -17.287,-1.697c-0.964,-0.091 -1.928,-0.183 -2.891,-0.274c-8.367,-0.794 -16.735,-1.549 -25.108,-2.239c-5.642,-0.466 -11.273,-1.032 -16.903,-1.679c-3.8,-0.437 -7.592,-0.818 -11.405,-1.018c-2.184,-0.12 -4.348,-0.353 -6.523,-0.626c-2.209,-0.27 -4.419,-0.483 -6.633,-0.677c-0.762,-0.069 -0.762,-0.069 -1.539,-0.14c-7.101,-0.566 -12.092,-0.201 -17.991,4.933c-1.481,1.251 -3.043,2.292 -4.623,3.332c-0.305,0.203 -0.61,0.406 -0.925,0.616c-3.494,2.277 -7.139,4.076 -10.825,5.806c-0.808,0.38 -1.613,0.771 -2.416,1.165c-15.086,6.957 -31.001,3.382 -45.189,-4.601c-4.326,-2.518 -8.644,-5.124 -12.736,-8.201c-0.315,-0.234 -0.629,-0.469 -0.953,-0.711c-0.561,-0.426 -1.117,-0.863 -1.665,-1.316c-3.65,-2.795 -8.659,-1.378 -12.737,-0.985c-0.796,0.074 -0.796,0.074 -1.608,0.149c-1.479,0.138 -2.958,0.277 -4.438,0.418c-1.664,0.158 -3.328,0.312 -4.992,0.468c-4.059,0.379 -8.118,0.762 -12.177,1.145c-22.328,2.106 -22.328,2.106 -32.834,3.006c-0.335,0.029 -0.671,0.058 -1.016,0.088c-0.857,0.074 -1.715,0.148 -2.573,0.221c-1.067,0.112 -2.133,0.258 -3.195,0.432c-2.404,0.388 -4.818,0.55 -7.236,0.739c-1.199,0.097 -2.399,0.194 -3.598,0.293c-0.501,0.041 -0.501,0.041 -1.012,0.083c-5.052,0.417 -10.102,0.874 -15.152,1.325c-0.529,0.047 -1.059,0.095 -1.604,0.143c-3.304,0.295 -6.607,0.591 -9.911,0.887c-2.239,0.2 -4.478,0.4 -6.717,0.601c-2.196,0.196 -4.393,0.393 -6.589,0.589c-1.03,0.092 -2.06,0.184 -3.091,0.276c-4.913,0.439 -9.826,0.882 -14.737,1.341c-4.822,0.451 -9.644,0.882 -14.47,1.257c-1.041,0.081 -2.081,0.164 -3.122,0.247c-2.949,0.235 -5.897,0.468 -8.846,0.699c-8.323,0.651 -16.633,1.383 -24.938,2.33c-4.916,0.56 -9.834,1.033 -14.76,1.426c-1.273,0.102 -2.546,0.21 -3.818,0.318c-4.604,0.38 -9.16,0.588 -13.774,0.511l0,-7.222c0.869,-0.067 1.738,-0.135 2.634,-0.204c0.873,-0.07 1.747,-0.139 2.62,-0.21c0.877,-0.07 1.755,-0.137 2.632,-0.205c3.041,-0.246 6.058,-0.567 9.083,-1.02c5.128,-0.755 10.279,-1.115 15.431,-1.522c2.974,-0.235 5.948,-0.479 8.921,-0.724c0.582,-0.048 1.165,-0.096 1.765,-0.145c4.51,-0.375 9.016,-0.798 13.52,-1.283c0.309,-0.033 0.619,-0.066 0.937,-0.1c1.523,-0.164 3.046,-0.329 4.569,-0.496c3.364,-0.368 6.729,-0.723 10.095,-1.07c0.344,-0.036 0.688,-0.071 1.043,-0.108c5.165,-0.529 10.33,-0.933 15.505,-1.274c6.327,-0.421 12.636,-1.058 18.95,-1.713c9.58,-0.99 19.169,-1.781 28.762,-2.534c0.562,-0.045 1.124,-0.089 1.703,-0.135c1.053,-0.083 2.107,-0.166 3.16,-0.246c2.365,-0.187 4.681,-0.461 7.025,-0.901c1.073,-0.101 2.146,-0.186 3.22,-0.258c0.308,-0.021 0.616,-0.042 0.933,-0.064c0.984,-0.068 1.969,-0.133 2.953,-0.198c7.407,-0.496 14.808,-1.095 22.209,-1.701c0.591,-0.048 1.182,-0.097 1.773,-0.145c1.168,-0.096 2.337,-0.191 3.505,-0.287c2.33,-0.191 4.66,-0.381 6.99,-0.571c1.175,-0.096 2.35,-0.192 3.524,-0.289c6.838,-0.563 13.673,-1.086 20.521,-1.433c0.907,-0.048 1.813,-0.107 2.72,-0.167Z" style="fill:#091855;fill-rule:nonzero;"/><path d="M125.205,101.288c0.449,-0.001 0.897,-0.001 1.359,-0.002c0.468,0.002 0.936,0.004 1.418,0.007c0.466,-0.002 0.933,-0.004 1.413,-0.007c0.674,0.001 0.674,0.001 1.361,0.002c0.41,0.001 0.82,0.001 1.243,0.002c1.037,0.067 1.897,0.292 2.895,0.627c0.886,0.095 1.773,0.189 2.66,0.274c5.006,0.509 9.622,2.011 14.429,3.773c1.293,0.458 2.594,0.848 3.903,1.226c11.857,3.438 23.378,10.422 34.086,17.505c0.364,0.24 0.727,0.479 1.102,0.726c5.256,3.485 10.329,7.264 15.317,11.317c0.781,0.635 1.566,1.262 2.351,1.889c5.796,4.701 11.187,10.134 16.407,15.78c0.614,0.646 1.239,1.277 1.867,1.902c3.052,3.044 5.834,6.303 8.573,9.771c0.692,0.876 1.388,1.747 2.084,2.618c2.402,3.015 4.733,6.081 6.933,9.331c0.395,0.567 0.79,1.135 1.185,1.701c11.169,16.287 21.237,35.243 28.631,54.618c0.137,0.354 0.274,0.708 0.414,1.073c0.316,0.854 0.593,1.729 0.863,2.608c-0.147,0.367 -0.293,0.733 -0.444,1.111c-0.583,-0.972 -1.166,-1.944 -1.749,-2.917c-0.181,-0.301 -0.361,-0.602 -0.548,-0.913c-0.901,-1.502 -1.802,-3.006 -2.701,-4.51c-0.997,-1.667 -1.997,-3.331 -2.998,-4.993c-0.179,-0.299 -0.359,-0.598 -0.543,-0.906c-2.208,-3.674 -4.476,-7.224 -6.968,-10.609c-0.866,-1.178 -1.705,-2.377 -2.538,-3.589c-1.22,-1.754 -2.506,-3.391 -3.833,-5.017c-0.809,-1.033 -1.555,-2.109 -2.302,-3.212c-1.268,-1.835 -2.612,-3.413 -4.09,-4.978c-1.059,-1.147 -2.083,-2.33 -3.106,-3.527c-2.776,-3.244 -5.618,-6.326 -8.601,-9.273c-0.287,-0.285 -0.574,-0.57 -0.869,-0.863c-4.778,-4.74 -9.648,-9.268 -14.677,-13.581c-0.313,-0.27 -0.627,-0.541 -0.95,-0.819c-16.032,-13.791 -33.207,-23.723 -51.463,-31.912c-1.043,-0.471 -2.082,-0.95 -3.118,-1.441c-7.805,-3.684 -15.671,-6.932 -23.783,-9.383c-0.972,-0.299 -1.938,-0.618 -2.903,-0.949c-4.945,-1.663 -9.955,-2.635 -15.016,-3.572c-1.255,-0.234 -2.508,-0.479 -3.761,-0.727c-10.36,-1.981 -20.914,-2.336 -31.372,-2.862l0,-1.111c0.752,-0.175 0.752,-0.175 1.52,-0.354c3.111,-0.866 6.098,-2.231 9.104,-3.537c1.026,-0.446 2.054,-0.887 3.081,-1.327c5.542,-2.385 11.005,-4.908 16.332,-7.976c0.764,-0.438 1.529,-0.875 2.294,-1.311c0.328,-0.189 0.657,-0.378 0.995,-0.572c1.578,-0.862 2.803,-1.105 4.51,-1.107Z" style="fill:#f9d9aa;fill-rule:nonzero;"/><path d="M436.939,104.696c1.029,0.577 2.066,1.131 3.109,1.667c0.53,0.275 1.059,0.55 1.605,0.833c2.771,1.405 5.516,2.742 8.401,3.745c1.073,0.412 2.081,0.909 3.115,1.455c2.995,1.519 6.085,2.594 9.188,3.707c0.439,0.162 0.879,0.324 1.332,0.49c0.397,0.143 0.795,0.286 1.204,0.433c0.918,0.448 0.918,0.448 1.362,1.559c-0.771,0.037 -0.771,0.037 -1.557,0.076c-12.901,0.597 -12.901,0.597 -25.71,2.49c-1.8,0.33 -3.609,0.548 -5.419,0.782c-9.196,1.203 -17.904,3.868 -26.737,7.227c-1.058,0.398 -2.117,0.788 -3.179,1.172c-4.376,1.585 -8.71,3.283 -13.02,5.129c-0.325,0.139 -0.65,0.278 -0.985,0.421c-5.425,2.33 -10.771,4.876 -16.088,7.565c-0.336,0.169 -0.672,0.338 -1.018,0.511c-4.438,2.238 -8.737,4.712 -12.99,7.453c-1.137,0.731 -2.279,1.447 -3.421,2.165c-8.602,5.494 -16.553,11.987 -24.463,18.898c-0.297,0.26 -0.595,0.519 -0.901,0.786c-3.348,2.931 -6.594,5.978 -9.759,9.214c-0.539,0.537 -1.079,1.073 -1.619,1.608c-3.683,3.671 -7.188,7.499 -10.596,11.565c-1.078,1.282 -2.18,2.517 -3.305,3.733c-1.848,2.009 -3.598,4.123 -5.328,6.289c-0.311,0.39 -0.623,0.78 -0.943,1.181c-2.012,2.546 -3.889,5.16 -5.659,7.977c-1.164,1.831 -2.387,3.59 -3.614,5.356c-2.155,3.116 -4.19,6.318 -6.177,9.603c-0.611,1.007 -1.233,2.004 -1.867,2.988c-0.891,1.404 -1.716,2.845 -2.533,4.319c-0.273,0.491 -0.545,0.981 -0.826,1.487c-0.204,0.369 -0.408,0.738 -0.618,1.118c-0.147,-0.367 -0.293,-0.733 -0.444,-1.111c0.381,-1.198 0.381,-1.198 1.001,-2.697c0.23,-0.557 0.46,-1.115 0.697,-1.689c0.383,-0.905 0.383,-0.905 0.773,-1.829c0.262,-0.623 0.523,-1.246 0.793,-1.887c7.899,-18.575 17.515,-36.307 28.576,-52.168c0.504,-0.724 1.005,-1.453 1.505,-2.182c1.451,-2.108 2.964,-4.092 4.553,-6.039c0.728,-0.93 1.389,-1.893 2.051,-2.897c1.177,-1.745 2.46,-3.203 3.85,-4.679c1.072,-1.164 2.11,-2.364 3.147,-3.578c2.619,-3.062 5.28,-5.968 8.133,-8.688c0.313,-0.3 0.627,-0.6 0.95,-0.91c9.412,-8.997 19.209,-16.922 29.623,-23.989c0.921,-0.627 1.838,-1.263 2.755,-1.9c11.628,-7.99 23.972,-13.735 36.841,-17.643c1.142,-0.349 2.266,-0.728 3.397,-1.133c9.422,-3.28 22.089,-6.53 30.817,0.02Z" style="fill:#f9d9ab;fill-rule:nonzero;"/><path d="M52.584,175.663c0.469,-0.002 0.937,-0.004 1.42,-0.006c1.55,-0.005 3.1,-0.002 4.651,0.002c1.093,-0.001 2.185,-0.002 3.278,-0.003c2.298,-0.002 4.596,0.001 6.895,0.006c2.896,0.006 5.793,0.003 8.689,-0.004c12.345,-0.023 24.633,0.106 36.948,1.26c0.468,0.042 0.935,0.084 1.417,0.127c6.514,0.586 12.989,1.588 19.472,2.563c5.102,0.765 10.18,1.412 15.311,1.789c4.811,0.373 9.331,1.219 13.992,2.743c0.452,0.147 0.905,0.295 1.371,0.446c2.97,0.974 5.932,1.981 8.892,3.001c1.647,0.566 3.298,1.112 4.95,1.657c1,0.335 1.999,0.67 2.998,1.007c0.485,0.162 0.97,0.324 1.47,0.49c7.238,2.491 14.166,5.826 21.073,9.475c0.458,0.241 0.458,0.241 0.924,0.486c4.26,2.246 8.405,4.703 12.524,7.327c1.434,0.908 2.878,1.793 4.321,2.68c6.043,3.73 12.025,7.506 17.841,11.772c1.921,1.401 3.683,2.479 5.81,3.325c0.885,0.639 1.756,1.311 2.61,2.014c0.644,0.526 0.644,0.526 1.301,1.063c0.322,0.268 0.644,0.536 0.975,0.812c-0.293,0.183 -0.586,0.367 -0.888,0.556c0.66,1.375 0.66,1.375 1.333,2.778c-1.754,-0.313 -3.001,-0.921 -4.442,-2.222c-0.147,-0.55 -0.293,-1.1 -0.444,-1.667c-0.943,-0.766 -0.943,-0.766 -2.122,-1.421c-0.439,-0.26 -0.879,-0.521 -1.332,-0.789c-0.464,-0.267 -0.927,-0.535 -1.405,-0.811c-0.448,-0.265 -0.896,-0.531 -1.358,-0.804c-2.777,-1.631 -5.58,-3.127 -8.442,-4.508c-0.517,-0.252 -0.517,-0.252 -1.045,-0.509c-1.35,-0.656 -2.7,-1.309 -4.052,-1.959c-1.448,-0.701 -2.881,-1.41 -4.299,-2.204c-2.627,-1.424 -5.378,-2.468 -8.094,-3.592c-0.299,-0.124 -0.599,-0.248 -0.907,-0.376c-4.503,-1.866 -9.01,-3.676 -13.584,-5.249c-0.649,-0.224 -0.649,-0.224 -1.311,-0.453c-2.966,-1.022 -5.936,-2.021 -8.911,-2.999c-0.809,-0.267 -1.617,-0.536 -2.424,-0.809c-4.16,-1.408 -8.21,-2.143 -12.507,-2.563c-2.78,-0.274 -5.517,-0.686 -8.271,-1.232c-3.463,-0.685 -6.924,-1.224 -10.411,-1.684c-2.386,-0.317 -4.763,-0.713 -7.142,-1.113c-5.613,-0.823 -11.218,-0.92 -16.862,-0.946c-0.624,-0.003 -0.624,-0.003 -1.26,-0.007c-2.214,-0.012 -4.428,-0.019 -6.643,-0.025c-1.784,-0.005 -3.569,-0.016 -5.353,-0.034c-16.358,-0.16 -33.456,0.096 -49.495,4.643c-0.417,0.117 -0.834,0.234 -1.264,0.355c-1.394,0.397 -2.785,0.801 -4.177,1.207c-1.027,0.297 -2.053,0.595 -3.08,0.892c-1.455,0.422 -2.91,0.844 -4.364,1.269c-4.849,1.413 -9.699,2.713 -14.595,3.843c-2.329,0.544 -4.596,1.203 -6.871,2.034c-4.169,1.407 -8.482,2.238 -12.732,3.177c0.511,-0.639 1.022,-1.278 1.534,-1.916c0.47,-0.589 0.937,-1.181 1.402,-1.775c1.602,-2.036 3.256,-3.953 4.985,-5.818c1.073,-1.166 2.129,-2.354 3.184,-3.546c1.909,-2.153 3.83,-4.286 5.774,-6.389c0.395,-0.512 0.79,-1.024 1.197,-1.552c2.624,-2.805 6.126,-4 9.324,-5.462c0.669,-0.313 1.337,-0.627 2.005,-0.942c5.395,-2.529 10.739,-4.736 16.345,-6.489c-8.208,-0.183 -16.417,-0.367 -24.874,-0.556c2.257,-2.823 5.772,-2.381 8.745,-2.366Z" style="fill:#f7d5a7;fill-rule:nonzero;"/><path d="M428.904,199.031c1.578,0.006 3.156,0.006 4.735,0.006c10.856,0 21.523,0.319 32.311,1.943c0.419,0.062 0.839,0.125 1.271,0.189c11.602,1.734 22.849,4.643 34.227,7.918c1.636,0.471 3.273,0.935 4.911,1.394c1.327,0.372 2.654,0.748 3.981,1.123c0.701,0.195 0.701,0.195 1.416,0.395c0.636,0.182 0.636,0.182 1.284,0.367c0.361,0.102 0.723,0.204 1.095,0.309c0.997,0.359 1.847,0.847 2.757,1.464c-6.45,-0.234 -12.85,-0.803 -19.268,-1.609c-3.565,-0.444 -7.12,-0.785 -10.697,-1.023c-1.44,-0.134 -2.816,-0.396 -4.237,-0.702c-23.313,-2.923 -47.601,-1.774 -70.948,-0.073c-1.016,0.074 -2.031,0.144 -3.047,0.215c-0.637,0.046 -1.274,0.092 -1.911,0.139c-0.548,0.04 -1.095,0.08 -1.659,0.121c-1.41,0.146 -2.769,0.419 -4.164,0.711c-0.919,0.083 -1.84,0.149 -2.761,0.2c-7.641,0.478 -15.171,1.396 -22.751,2.709c-3.755,0.646 -7.465,1.139 -11.25,1.413c-1.802,0.155 -3.55,0.473 -5.324,0.887c-0.677,0.15 -1.353,0.299 -2.03,0.447c-0.341,0.076 -0.682,0.151 -1.033,0.229c-1.414,0.306 -2.831,0.58 -4.25,0.853c-13.658,2.632 -27.315,6.424 -40.548,11.422c-0.657,0.248 -0.657,0.248 -1.328,0.501c-0.409,0.158 -0.818,0.315 -1.24,0.477c-0.362,0.139 -0.724,0.279 -1.097,0.422c-1.012,0.407 -1.012,0.407 -1.935,1.083c-0.841,0.467 -0.841,0.467 -2.173,-0.089c4.413,-3.069 8.857,-5.725 13.548,-8.056c0.306,-0.154 0.612,-0.307 0.928,-0.466c7.784,-3.907 15.624,-7.395 23.737,-10.074c1.316,-0.442 2.622,-0.925 3.929,-1.405c7.925,-2.819 15.918,-4.877 24.011,-6.777c1.265,-0.305 2.523,-0.639 3.781,-0.991c4.894,-1.363 9.761,-2.296 14.745,-2.97c1.2,-0.163 2.399,-0.335 3.597,-0.508c2.553,-0.361 5.109,-0.68 7.667,-0.977c0.465,-0.054 0.929,-0.108 1.408,-0.163c9.44,-1.051 18.844,-1.102 28.312,-1.056Z" style="fill:#ca9a5c;fill-rule:nonzero;"/><path d="M120.407,199.031c1.254,0.006 2.508,0.006 3.762,0.006c10.43,0 20.792,0.38 31.18,1.589c1.265,0.147 2.53,0.29 3.796,0.431c2.43,0.274 4.859,0.564 7.287,0.86c0.366,0.044 0.733,0.088 1.11,0.134c4.336,0.531 8.546,1.284 12.798,2.505c1.069,0.297 2.139,0.594 3.208,0.89c0.543,0.151 1.086,0.303 1.645,0.458c2.809,0.769 5.627,1.477 8.444,2.193c4.439,1.139 8.832,2.376 13.214,3.819c0.49,0.155 0.979,0.311 1.483,0.471c4.482,1.445 8.854,3.204 13.23,5.085c0.364,0.155 0.727,0.311 1.102,0.471c6.557,2.811 12.958,5.97 19.322,9.404c1.19,0.63 2.387,1.218 3.593,1.798c2.245,1.112 4.316,2.523 6.409,4.021c0.361,0.255 0.723,0.51 1.095,0.773c0.876,0.619 1.751,1.241 2.625,1.866c-1.591,0.663 -1.83,0.432 -3.297,-0.425c-0.382,-0.22 -0.765,-0.44 -1.159,-0.666c-0.399,-0.236 -0.797,-0.471 -1.208,-0.714c-0.784,-0.455 -1.568,-0.909 -2.353,-1.363c-0.347,-0.204 -0.695,-0.409 -1.053,-0.619c-0.379,-0.217 -0.757,-0.434 -1.147,-0.657c-0.466,-0.27 -0.932,-0.541 -1.412,-0.819c-2,-1.062 -4.076,-1.696 -6.181,-2.351c-0.432,-0.137 -0.863,-0.273 -1.308,-0.414c-1.4,-0.441 -2.801,-0.877 -4.203,-1.311c-0.479,-0.149 -0.959,-0.298 -1.452,-0.452c-7.843,-2.436 -15.678,-4.602 -23.644,-6.319c-0.584,-0.128 -1.168,-0.255 -1.752,-0.383c-10.774,-2.378 -10.774,-2.378 -21.651,-3.749c-2.534,-0.2 -5.011,-0.617 -7.52,-1.094c-4.847,-0.891 -9.698,-1.505 -14.578,-2.031c-0.427,-0.047 -0.854,-0.094 -1.294,-0.142c-8.381,-0.915 -16.763,-1.544 -25.167,-1.996c-1.29,-0.072 -2.579,-0.156 -3.868,-0.238c-22.951,-1.361 -46.091,-0.468 -68.968,2.077c-4.003,0.44 -8.01,0.801 -12.018,1.159c-1.228,0.11 -2.456,0.222 -3.683,0.334c-0.754,0.067 -1.508,0.135 -2.262,0.202c-0.51,0.047 -0.51,0.047 -1.03,0.094c-1.968,0.172 -3.914,0.24 -5.886,0.212c1.504,-1.254 2.65,-1.576 4.411,-2.075c0.308,-0.088 0.616,-0.176 0.934,-0.267c1.012,-0.288 2.026,-0.571 3.039,-0.853c0.705,-0.199 1.41,-0.397 2.114,-0.596c6.404,-1.799 12.823,-3.503 19.262,-5.098c0.503,-0.128 0.503,-0.128 1.016,-0.259c5.572,-1.419 11.126,-2.493 16.78,-3.257c1.216,-0.164 2.432,-0.336 3.647,-0.508c2.058,-0.288 4.116,-0.559 6.176,-0.818c0.83,-0.105 1.66,-0.212 2.49,-0.322c7.641,-0.996 15.245,-1.103 22.917,-1.056Z" style="fill:#cb9b5d;fill-rule:nonzero;"/><path d="M360.984,66.362c-1.084,1.044 -2.162,1.988 -3.352,2.83c-0.299,0.214 -0.597,0.428 -0.905,0.648c-0.318,0.227 -0.635,0.455 -0.962,0.689c-5.518,4.009 -10.772,8.468 -15.657,13.611c-0.345,0.357 -0.345,0.357 -0.696,0.722c-3.256,3.377 -6.344,6.883 -9.306,10.661c-1.251,1.593 -2.512,3.116 -3.879,4.555c-1.708,1.818 -3.173,3.852 -4.65,5.959c-0.653,0.926 -1.319,1.839 -1.999,2.734c-2.922,3.873 -5.173,8.12 -7.454,12.591c-0.416,0.804 -0.832,1.609 -1.248,2.413c-1.386,2.695 -2.74,5.414 -4.083,8.142c-0.361,0.731 -0.361,0.731 -0.729,1.477c-9.284,18.955 -16.677,39.768 -22.252,60.865c-0.588,2.207 -1.235,4.372 -1.893,6.547c-0.301,1.109 -0.599,2.219 -0.888,3.333l-0.444,0c0.353,-4.181 1.006,-8.275 1.666,-12.396c0.059,-0.37 0.118,-0.739 0.179,-1.12c0.853,-5.326 1.824,-10.588 2.983,-15.824c0.407,-1.843 0.758,-3.694 1.085,-5.562c2.998,-16.963 7.627,-33.899 13.632,-49.542c0.164,-0.44 0.329,-0.88 0.498,-1.334c3.991,-10.67 8.828,-21.011 14.916,-30.032c0.59,-0.877 1.168,-1.765 1.744,-2.655c10.055,-15.379 10.055,-15.379 15.156,-16.083c0.872,-0.122 0.872,-0.122 1.761,-0.247c2.339,-0.268 4.683,-0.443 7.029,-0.57c1.713,-0.062 1.713,-0.062 3.314,-0.745c1.917,-0.366 3.847,-0.603 5.774,-0.868c0.796,-0.115 0.796,-0.115 1.608,-0.233c3.032,-0.422 6.001,-0.679 9.052,-0.565Z" style="fill:#fde6c2;fill-rule:nonzero;"/><path d="M195.304,66.362c5.978,0.334 11.919,1.025 17.867,1.839c1.053,0.141 2.106,0.276 3.16,0.405c1.54,0.189 3.079,0.397 4.617,0.61c0.47,0.054 0.94,0.108 1.424,0.164c3.612,0.534 3.612,0.534 4.953,2.548c0.28,0.547 0.559,1.094 0.847,1.657c0.505,0.563 1.022,1.11 1.555,1.632c17.98,19.33 27.764,50.882 34.424,78.368c0.13,0.533 0.26,1.067 0.394,1.616c1.642,6.799 2.987,13.651 4.197,20.589c0.321,1.827 0.649,3.652 0.979,5.476c3.419,18.963 3.419,18.963 3.314,22.873c-1.276,-1.596 -1.479,-3.536 -1.943,-5.66c-6.128,-26.604 -16.401,-52.219 -28.261,-75.451c-0.242,-0.479 -0.484,-0.959 -0.733,-1.453c-2.758,-5.451 -5.665,-10.31 -9.279,-14.915c-0.696,-0.918 -1.35,-1.869 -2.007,-2.832c-2.106,-3.034 -4.38,-5.86 -6.651,-8.699c-0.758,-0.949 -1.512,-1.902 -2.266,-2.855c-2.951,-3.709 -5.968,-7.133 -9.269,-10.357c-0.269,-0.269 -0.537,-0.538 -0.814,-0.816c-4.965,-4.971 -10.271,-9.294 -15.674,-13.475c-0.275,-0.234 -0.551,-0.468 -0.835,-0.71l0,-0.556Z" style="fill:#fde6c2;fill-rule:nonzero;"/><path d="M225.106,250.18c8.714,-0.405 8.714,-0.405 12.451,2.502c0.36,0.25 0.72,0.5 1.091,0.757c0.742,0.517 1.48,1.043 2.214,1.579c1.743,1.27 3.52,2.455 5.302,3.636c0.344,0.229 0.688,0.458 1.043,0.694c14.678,9.619 30.694,12.796 46.731,6.797c6.336,-2.482 12.543,-5.833 18.243,-10.095c0.868,-0.64 1.738,-1.276 2.61,-1.91c0.499,-0.365 0.997,-0.73 1.511,-1.107c2.973,-2.04 5.501,-3.052 8.904,-2.934c0.361,0.006 0.723,0.013 1.095,0.02c4.867,0.117 9.727,0.496 14.585,0.861c1.046,0.077 2.092,0.153 3.139,0.229c7.325,0.537 14.648,1.116 21.97,1.714c5.007,0.407 10.015,0.788 15.024,1.143c15.447,1.098 30.88,2.365 46.312,3.77c1.948,0.177 3.897,0.355 5.845,0.531c0.376,0.034 0.753,0.068 1.141,0.104c7.635,0.692 15.273,1.309 22.915,1.864c0.393,0.029 0.786,0.058 1.192,0.088c0.708,0.052 1.416,0.103 2.124,0.152c1.307,0.096 2.583,0.228 3.874,0.506c1.975,0.4 3.951,0.508 5.948,0.642c0.921,0.065 1.841,0.131 2.762,0.197c0.482,0.034 0.963,0.067 1.46,0.102c7.608,0.535 15.203,1.139 22.793,1.981c5.75,0.636 11.502,1.082 17.267,1.445c0.313,0.02 0.627,0.041 0.95,0.062c0.844,0.055 1.688,0.107 2.533,0.159c1.254,0.122 2.418,0.375 3.646,0.694c0.833,-0.058 1.666,-0.129 2.499,-0.208c4.187,-0.084 7.908,2.108 11.715,4.097l0,0.556c-9.908,-0.691 -19.805,-1.509 -29.701,-2.443c-2.616,-0.247 -5.231,-0.491 -7.847,-0.735c-0.626,-0.058 -1.251,-0.117 -1.877,-0.175c-4.01,-0.375 -8.019,-0.717 -12.035,-0.963c-1.378,-0.126 -2.702,-0.392 -4.063,-0.684c-0.692,-0.069 -1.385,-0.121 -2.079,-0.156c-0.376,-0.021 -0.752,-0.042 -1.14,-0.063c-0.385,-0.019 -0.771,-0.039 -1.168,-0.059c-4.28,-0.217 -4.28,-0.217 -6.305,-0.56c-1.92,-0.301 -3.811,-0.4 -5.743,-0.482c-4.755,-0.238 -9.497,-0.661 -14.242,-1.111c-0.382,-0.036 -0.764,-0.072 -1.158,-0.11c-4.744,-0.452 -9.487,-0.928 -14.228,-1.42c-8.538,-0.885 -17.081,-1.63 -25.63,-2.322c-4.007,-0.325 -8.013,-0.659 -12.02,-0.993c-2.265,-0.189 -4.53,-0.377 -6.795,-0.565c-1.875,-0.156 -3.751,-0.312 -5.626,-0.469c-2.129,-0.178 -4.258,-0.355 -6.387,-0.53c-0.339,-0.028 -0.677,-0.056 -1.026,-0.085c-4.446,-0.364 -8.892,-0.691 -13.344,-0.895c-2.141,-0.103 -4.255,-0.321 -6.386,-0.602c-1.708,-0.208 -3.418,-0.312 -5.133,-0.411c-0.369,-0.023 -0.738,-0.045 -1.119,-0.068c-1.168,-0.071 -2.336,-0.14 -3.504,-0.209c-1.532,-0.092 -3.063,-0.185 -4.595,-0.278c-0.376,-0.023 -0.753,-0.046 -1.14,-0.069c-2.559,-0.156 -5.118,-0.323 -7.676,-0.5c-0.333,-0.023 -0.665,-0.046 -1.008,-0.069c-1.673,-0.117 -3.343,-0.258 -5.013,-0.426c-5.696,-0.446 -9.65,1.799 -14.549,5.23c-1.247,0.851 -2.497,1.694 -3.748,2.535c-0.303,0.205 -0.606,0.411 -0.917,0.622c-3.485,2.319 -7.137,4.091 -10.825,5.837c-0.77,0.368 -1.534,0.753 -2.296,1.143c-9.704,4.836 -21.942,5.894 -31.962,2.086c-0.33,-0.12 -0.66,-0.239 -1.001,-0.362c-8.428,-3.085 -16.433,-7.705 -24.09,-13.054c-0.772,-0.509 -0.772,-0.509 -1.56,-1.029c-0.341,-0.231 -0.682,-0.462 -1.034,-0.7c-3.162,-1.992 -5.68,-2.453 -9.19,-2.299c-0.499,0.011 -0.997,0.022 -1.511,0.034c-1.568,0.043 -3.134,0.11 -4.701,0.187c-0.741,0.036 -0.741,0.036 -1.497,0.073c-3.464,0.18 -6.924,0.429 -10.385,0.691c-1.061,0.077 -2.121,0.154 -3.182,0.231c-6.917,0.504 -13.83,1.051 -20.742,1.653c-2.75,0.237 -5.501,0.462 -8.251,0.685c-0.558,0.045 -1.116,0.091 -1.692,0.138c-3.182,0.256 -6.363,0.494 -9.547,0.715c-0.353,0.025 -0.706,0.049 -1.07,0.075c-1.72,0.12 -3.441,0.237 -5.161,0.352c-0.627,0.043 -1.254,0.086 -1.881,0.129c-0.547,0.037 -1.095,0.073 -1.659,0.111c-1.01,0.095 -2.019,0.232 -3.022,0.417c-1.578,0.274 -3.133,0.443 -4.722,0.569c-0.292,0.024 -0.583,0.047 -0.883,0.072c-0.631,0.051 -1.262,0.101 -1.893,0.151c-1.015,0.08 -2.031,0.162 -3.046,0.245c-1.454,0.118 -2.907,0.235 -4.361,0.352c-11.54,0.929 -23.072,1.895 -34.589,3.2c-4.437,0.496 -8.863,0.837 -13.315,1.055c-3.413,0.171 -6.81,0.457 -10.213,0.825c-1.005,0.109 -2.011,0.214 -3.016,0.318c-1.495,0.155 -2.99,0.312 -4.486,0.469c-4.421,0.464 -8.843,0.916 -13.265,1.364c-0.465,0.047 -0.931,0.094 -1.41,0.143c-7.841,0.792 -15.685,1.47 -23.538,2.058c-4.055,0.309 -8.085,0.686 -12.115,1.332c-2.253,0.348 -4.446,0.397 -6.717,0.356l0,-0.556c0.665,-0.23 0.665,-0.23 1.343,-0.464c1.739,-0.622 3.443,-1.355 5.148,-2.112c0.634,-0.278 1.267,-0.555 1.901,-0.832c0.988,-0.433 1.976,-0.868 2.962,-1.306c0.96,-0.425 1.921,-0.845 2.882,-1.265c0.297,-0.133 0.593,-0.266 0.899,-0.403c0.721,-0.312 1.454,-0.58 2.188,-0.84c0.293,0.183 0.586,0.367 0.888,0.556c-0.733,0.55 -1.466,1.1 -2.221,1.667c1.314,0.015 2.628,0.026 3.942,0.035c0.374,0.005 0.748,0.009 1.133,0.014c0.358,0.002 0.716,0.004 1.084,0.005c0.33,0.003 0.661,0.006 1.001,0.009c0.875,0.002 0.875,0.002 1.723,-0.619c1.008,-0.1 2.019,-0.167 3.029,-0.219c0.654,-0.037 1.307,-0.074 1.961,-0.111c0.351,-0.019 0.703,-0.039 1.065,-0.059c6.771,-0.38 13.512,-0.976 20.263,-1.729c11.429,-1.269 22.878,-2.098 34.331,-2.935c7.828,-0.572 15.648,-1.165 23.459,-2.039c15.989,-1.771 32.008,-2.981 48.03,-4.158c0.38,-0.028 0.761,-0.056 1.153,-0.085c0.377,-0.028 0.755,-0.055 1.143,-0.084c0.374,-0.027 0.748,-0.055 1.134,-0.083c0.75,-0.055 1.499,-0.11 2.249,-0.165c4.802,-0.352 9.602,-0.728 14.401,-1.137c5.886,-0.501 11.774,-0.935 17.666,-1.325c1.613,-0.108 3.226,-0.22 4.839,-0.333c3.513,-0.239 7.028,-0.427 10.543,-0.61Z" style="fill:#5b70b6;fill-rule:nonzero;"/><path d="M74.07,150.147c0.534,-0.007 1.068,-0.014 1.618,-0.021c8.828,-0.017 17.567,1.446 26.282,3.076c0.468,0.087 0.935,0.173 1.417,0.263c6.849,1.273 13.654,2.613 20.403,4.564c0.336,0.097 0.671,0.193 1.017,0.293c2.837,0.818 5.672,1.648 8.505,2.485c0.394,0.116 0.789,0.233 1.195,0.353c8.058,2.389 15.972,5.117 23.818,8.432c0.347,0.146 0.694,0.292 1.052,0.442c23.502,9.883 46.273,22.36 67.463,38.551c0.522,0.397 0.522,0.397 1.054,0.801c4.689,3.571 9.328,7.239 13.937,10.97c0.447,0.36 0.895,0.72 1.355,1.091c0.617,0.503 0.617,0.503 1.247,1.016c0.366,0.297 0.733,0.595 1.11,0.901c0.84,0.777 0.84,0.777 1.284,1.888c-2.183,-0.924 -3.971,-2.465 -5.885,-4.028c-13.268,-10.613 -27.564,-19.491 -42.086,-27.083c-0.483,-0.253 -0.967,-0.506 -1.465,-0.767c-3.496,-1.823 -7.006,-3.6 -10.528,-5.344c-0.448,-0.222 -0.896,-0.444 -1.358,-0.673c-7.281,-3.578 -14.685,-6.55 -22.184,-9.327c-0.698,-0.26 -0.698,-0.26 -1.41,-0.525c-15.196,-5.615 -30.57,-9.57 -46.312,-11.836c-0.321,-0.046 -0.642,-0.093 -0.973,-0.14c-2.126,-0.302 -4.254,-0.577 -6.384,-0.832c-0.493,-0.059 -0.985,-0.119 -1.493,-0.18c-5.376,-0.545 -10.771,-0.479 -16.161,-0.479c-1.698,-0.001 -3.395,-0.011 -5.092,-0.022c-10.166,-0.03 -20.356,0.309 -30.361,2.729c-1.11,0.261 -2.221,0.518 -3.333,0.77c-0.467,0.112 -0.934,0.224 -1.415,0.34c-1.166,0.167 -1.898,0.09 -2.997,-0.381c2.646,-2.991 5.293,-5.978 7.995,-8.889c0.423,-0.461 0.845,-0.922 1.28,-1.398c5.742,-6.197 9.884,-7.035 17.403,-7.04Z" style="fill:#ecbd7f;fill-rule:nonzero;"/><path d="M479.914,149.939c0.312,-0.001 0.625,-0.003 0.947,-0.004c4.627,0.002 9.779,0.172 13.572,3.893c0.594,0.582 0.594,0.582 1.201,1.176c1.948,2.083 3.834,4.241 5.696,6.443c1.388,1.641 2.825,3.205 4.284,4.746c0.618,0.725 0.618,0.725 1.062,1.836c-3.276,-0.474 -6.539,-0.959 -9.782,-1.718c-10.102,-2.308 -20.427,-2.357 -30.665,-2.315c-1.589,0.006 -3.179,0.003 -4.768,-0.004c-1.256,-0.004 -2.511,-0.003 -3.767,0c-0.864,0.001 -1.727,-0.002 -2.591,-0.006c-3.404,0.022 -6.667,0.377 -10.027,1.005c-1.731,0.306 -3.451,0.455 -5.195,0.584c-13.648,1.025 -27.477,4.538 -40.584,9.316c-1.026,0.37 -2.055,0.727 -3.085,1.082c-9.78,3.388 -19.525,7.199 -28.949,11.92c-1.029,0.512 -2.06,1.018 -3.093,1.517c-11.288,5.464 -22.144,11.796 -32.945,18.62c-0.516,0.324 -1.031,0.648 -1.563,0.982c-7.799,4.919 -15.339,10.393 -22.423,16.796c-0.293,-0.183 -0.586,-0.367 -0.888,-0.556c6.69,-6.445 14.033,-11.905 21.321,-17.222c0.338,-0.247 0.675,-0.495 1.023,-0.75c6.076,-4.436 12.255,-8.583 18.521,-12.584c0.322,-0.206 0.644,-0.412 0.976,-0.624c1.716,-1.094 3.438,-2.169 5.167,-3.229c0.689,-0.423 1.377,-0.848 2.065,-1.274c25.633,-15.857 53.019,-25.884 80.956,-32.952c0.9,-0.228 1.8,-0.458 2.699,-0.688c13.342,-3.369 27.207,-6.002 40.836,-5.99Z" style="fill:#edbf80;fill-rule:nonzero;"/><path d="M486.243,259.696c0.709,0.168 0.709,0.168 1.432,0.34c1.225,0.291 2.451,0.583 3.676,0.876c0.413,0.098 0.826,0.197 1.251,0.298c0.99,0.236 1.979,0.472 2.969,0.709l0,1.111c0.293,0.183 0.586,0.367 0.888,0.556c-6.046,0.111 -12.043,-0.176 -18.077,-0.651c-1.436,-0.113 -2.872,-0.219 -4.308,-0.326c-4.276,-0.323 -8.539,-0.694 -12.799,-1.259c-4.207,-0.558 -8.413,-0.87 -12.637,-1.148c-7.492,-0.497 -14.975,-1.098 -22.455,-1.812c-0.354,-0.034 -0.707,-0.067 -1.071,-0.102c-1.837,-0.175 -3.674,-0.351 -5.511,-0.528c-18.077,-1.732 -36.163,-3.071 -54.266,-4.285c-10.295,-0.691 -20.59,-1.423 -30.876,-2.292c-0.811,-0.068 -1.622,-0.133 -2.433,-0.197c-1.215,-0.096 -2.43,-0.198 -3.644,-0.301c-0.361,-0.027 -0.722,-0.054 -1.095,-0.083c-1.68,-0.15 -3.069,-0.297 -4.503,-1.463c0.911,-0.127 1.822,-0.253 2.733,-0.38c0.826,-0.075 0.826,-0.075 1.265,-0.731c1.125,-0.123 2.24,-0.212 3.368,-0.278c0.35,-0.022 0.701,-0.045 1.062,-0.068c1.161,-0.073 2.321,-0.142 3.482,-0.21c0.396,-0.024 0.793,-0.048 1.201,-0.073c5.761,-0.348 11.523,-0.629 17.288,-0.83c0.319,-0.011 0.638,-0.023 0.966,-0.034c37.652,-1.313 76.182,1.548 132.094,13.159Z" style="fill:#13236a;fill-rule:nonzero;"/><path d="M158.437,155.251c22.985,6.474 44.635,19.408 63.962,36.111c0.301,0.259 0.601,0.519 0.911,0.786c5.55,4.813 10.809,10.059 15.938,15.549c1.21,1.291 2.449,2.532 3.694,3.77c7.953,8.124 16.029,17.494 22.294,27.676c0.666,1.12 0.666,1.12 1.454,2.027c0.571,0.749 0.571,0.749 0.571,1.86c-1.37,-0.768 -2.327,-1.663 -3.415,-2.951c-2.841,-3.225 -5.922,-6.056 -8.98,-8.946c-3.372,-3.191 -6.712,-6.431 -10.007,-9.746c-2.28,-2.27 -4.599,-4.477 -6.914,-6.691c-0.298,-0.285 -0.595,-0.57 -0.902,-0.863c-0.311,-0.297 -0.622,-0.595 -0.942,-0.901c-0.316,-0.303 -0.633,-0.606 -0.959,-0.917c-0.651,-0.622 -1.302,-1.244 -1.953,-1.865c-1.421,-1.357 -2.841,-2.716 -4.247,-4.097c-6.527,-6.382 -13.368,-12.205 -20.422,-17.636c-0.874,-0.673 -1.747,-1.348 -2.619,-2.025c-7.39,-5.732 -14.871,-11.121 -22.591,-16.139c-0.336,-0.219 -0.672,-0.439 -1.018,-0.665c-3.798,-2.467 -7.674,-4.727 -11.558,-6.974c-0.44,-0.256 -0.88,-0.512 -1.334,-0.775c-2.511,-1.439 -5.034,-2.728 -7.641,-3.872c-1.12,-0.5 -2.222,-1.043 -3.324,-1.603l0,-1.111Z" style="fill:#f0c484;fill-rule:nonzero;"/><path d="M393.853,156.918c-2.95,1.61 -5.889,3.199 -8.911,4.583c-10.528,5.008 -20.483,12.199 -30.177,19.306c-0.391,0.286 -0.782,0.572 -1.185,0.867c-5.524,4.061 -10.886,8.398 -16.193,12.883c-0.287,0.242 -0.575,0.484 -0.871,0.734c-3.951,3.335 -7.763,6.832 -11.511,10.516c-0.629,0.614 -1.258,1.227 -1.888,1.84c-0.466,0.454 -0.466,0.454 -0.94,0.918c-0.971,0.939 -1.945,1.871 -2.922,2.799c-3.617,3.441 -7.184,6.928 -10.685,10.553c-2.282,2.337 -4.599,4.599 -6.97,6.792c-3.237,2.998 -6.332,6.13 -9.367,9.44c-1.906,2.076 -3.882,4.04 -5.872,5.99c0,-2.221 0.603,-2.673 1.804,-4.271c1.249,-1.675 2.484,-3.358 3.685,-5.087c4.065,-5.833 8.303,-11.394 12.927,-16.537c0.736,-0.832 1.457,-1.681 2.177,-2.536c3.032,-3.596 6.141,-6.939 9.454,-10.122c1.385,-1.333 2.715,-2.735 4.043,-4.156c14.469,-15.181 54.287,-52.02 73.401,-44.514Z" style="fill:#f0c586;fill-rule:nonzero;"/><path d="M434.718,223.584c4.124,-0.066 8.188,0.109 12.298,0.521c4.742,0.457 4.742,0.457 9.491,0.754c15.638,0.741 31.89,4.069 46.96,9.192c4.372,1.477 8.789,2.715 13.202,3.978c5.431,1.554 10.842,3.14 16.213,5l0,0.556c-7.004,-0.188 -14.165,-2.228 -20.788,-5.014c-1.553,-0.592 -3.104,-1.026 -4.693,-1.44c-0.554,-0.145 -1.107,-0.291 -1.678,-0.44c-0.419,-0.108 -0.837,-0.216 -1.269,-0.328c0.364,0.134 0.728,0.268 1.103,0.406c17.058,6.294 17.058,6.294 23.91,10.184c0.475,0.264 0.475,0.264 0.959,0.533c1.885,1.112 3.168,2.103 4.232,4.432c0.393,1.837 0.667,3.675 0.888,5.556c-0.497,-0.296 -0.994,-0.593 -1.506,-0.898c-5.97,-3.494 -12.078,-6.307 -18.304,-8.999c-1.394,-0.607 -2.783,-1.23 -4.17,-1.86c-5.378,-2.427 -10.795,-4.415 -16.327,-6.215c-2.081,-0.678 -4.144,-1.407 -6.204,-2.174c-6.477,-2.406 -13.072,-4.173 -19.671,-5.964c-0.7,-0.192 -0.7,-0.192 -1.414,-0.388c-10.938,-2.998 -22.049,-5.837 -33.232,-6.834l0,-0.556Z" style="fill:#dbab6b;fill-rule:nonzero;"/><path d="M121.57,223.029l0,0.556c-0.392,0.053 -0.785,0.106 -1.189,0.16c-20.279,2.763 -40.529,7.598 -60.108,14.84c-0.358,0.131 -0.716,0.262 -1.085,0.397c-4.279,1.568 -8.534,3.199 -12.753,5.007c-1.45,0.614 -2.912,1.164 -4.378,1.717c-2.997,1.149 -5.95,2.432 -8.893,3.778c-0.844,0.385 -1.69,0.763 -2.537,1.141c-3.477,1.575 -6.736,3.407 -10.008,5.555c-1.212,0.74 -1.212,0.74 -2.1,0.74c0.222,-2.778 0.596,-4.842 1.777,-7.222c0.985,-0.89 1.832,-1.547 2.905,-2.211c0.292,-0.187 0.583,-0.374 0.884,-0.567c3.544,-2.194 7.275,-3.683 11.036,-5.173c0.706,-0.286 1.413,-0.573 2.119,-0.86c1.329,-0.54 2.658,-1.076 3.989,-1.608c1.912,-0.765 3.817,-1.556 5.719,-2.358c-0.576,0.184 -0.576,0.184 -1.164,0.373c-12.945,4.133 -12.945,4.133 -18.241,5.461c-0.524,0.133 -0.524,0.133 -1.059,0.269c-1.637,0.395 -3.185,0.664 -4.854,0.565c1.02,-1.276 1.546,-1.42 2.926,-1.847c0.425,-0.134 0.85,-0.268 1.288,-0.405c0.464,-0.142 0.929,-0.284 1.407,-0.43c0.484,-0.151 0.968,-0.302 1.467,-0.457c1.033,-0.321 2.067,-0.641 3.101,-0.958c1.539,-0.473 3.077,-0.951 4.614,-1.43c6.042,-1.876 12.098,-3.669 18.168,-5.403c1.71,-0.489 3.418,-0.989 5.124,-1.501c13.776,-4.122 28.046,-5.283 42.129,-6.637c3.309,-0.322 6.611,-0.708 9.912,-1.138c3.276,-0.412 6.514,-0.464 9.805,-0.35Z" style="fill:#dbab6b;fill-rule:nonzero;"/><path d="M314.789,75.251c0,2.367 -1.081,3.62 -2.193,5.417c-2.489,4.144 -4.668,8.395 -6.69,12.917c-0.19,0.422 -0.38,0.844 -0.576,1.279c-8.526,19.123 -13.4,40.37 -17.636,61.498c-0.157,0.777 -0.313,1.554 -0.47,2.331c-1.848,9.186 -3.5,18.404 -4.944,27.703c-0.111,0.713 -0.222,1.426 -0.336,2.161c-0.598,3.903 -1.124,7.806 -1.591,11.737c-0.182,1.41 -0.404,2.784 -0.665,4.173c-0.547,2.93 -0.846,5.893 -1.156,8.874c-0.089,0.841 -0.089,0.841 -0.18,1.698c-0.145,1.367 -0.288,2.733 -0.43,4.1l-0.444,0c-0.036,-3.344 0.074,-6.577 0.377,-9.898c0.061,-0.694 0.061,-0.694 0.124,-1.403c0.136,-1.523 0.275,-3.045 0.416,-4.567c0.048,-0.529 0.097,-1.057 0.147,-1.602c1.691,-18.342 3.53,-36.766 6.932,-54.752c0.076,-0.403 0.152,-0.807 0.23,-1.222c0.381,-1.984 0.807,-3.946 1.267,-5.904c0.351,-1.513 0.686,-3.032 1.023,-4.55c1.978,-8.766 4.379,-17.179 7.253,-25.547c0.144,-0.427 0.288,-0.855 0.436,-1.295c2.636,-7.762 6.181,-14.926 9.78,-22.038c0.2,-0.396 0.4,-0.791 0.606,-1.199c2.359,-4.561 5.005,-7.238 8.721,-9.912Z" style="fill:#fdebcc;fill-rule:nonzero;"/><path d="M89.145,149.696c0.52,0.074 1.041,0.148 1.577,0.224c0.705,0.099 1.41,0.198 2.115,0.297c0.366,0.052 0.732,0.103 1.11,0.156c1.951,0.272 3.901,0.517 5.859,0.712c1.903,0.204 3.728,0.626 5.594,1.128c1.329,0.324 2.652,0.492 4.001,0.625c1.243,0.223 2.435,0.623 3.651,1.008c1.47,0.446 2.953,0.804 4.438,1.156c0.662,0.159 1.324,0.318 1.987,0.478c0.342,0.082 0.684,0.163 1.036,0.248c1.797,0.43 3.593,0.867 5.389,1.304c0.355,0.086 0.711,0.173 1.077,0.262c0.691,0.168 1.382,0.336 2.073,0.504c0.868,0.211 1.736,0.421 2.603,0.631c6.093,1.485 11.987,3.346 17.899,5.713c0.679,0.266 1.358,0.532 2.037,0.796c1.74,0.68 3.478,1.372 5.215,2.065c1.332,0.529 2.665,1.05 3.999,1.572c0.979,0.385 1.957,0.771 2.936,1.157c0.452,0.176 0.904,0.351 1.37,0.532c2.732,1.082 5.367,2.328 8.002,3.735c1.274,0.676 2.556,1.319 3.844,1.95c8.744,4.294 17.436,8.829 25.792,14.212c1.486,0.957 2.986,1.875 4.49,2.786c6.918,4.214 13.512,8.895 20.047,13.971c0.711,0.548 1.423,1.097 2.134,1.645c3.983,3.081 7.95,6.165 11.627,9.803c0.913,0.835 0.913,0.835 2.089,1.469c1.989,1.313 3.661,3.007 5.415,4.757c0.683,0.675 1.367,1.35 2.051,2.025c0.331,0.327 0.662,0.654 1.002,0.991c1.5,1.466 3.024,2.892 4.553,4.311c-1.519,0 -1.836,-0.299 -3.043,-1.365c-0.506,-0.442 -0.506,-0.442 -1.023,-0.892c-0.362,-0.321 -0.724,-0.642 -1.097,-0.972c-0.769,-0.669 -1.538,-1.338 -2.308,-2.005c-0.387,-0.336 -0.774,-0.672 -1.173,-1.019c-2.847,-2.447 -5.765,-4.759 -8.678,-7.08c-0.344,-0.274 -0.687,-0.549 -1.041,-0.831c-24.084,-19.206 -49.521,-35.068 -76.592,-46.525c-1.121,-0.479 -2.239,-0.968 -3.357,-1.456c-6.118,-2.644 -12.272,-4.796 -18.566,-6.678c-1.495,-0.447 -2.987,-0.903 -4.48,-1.359c-9.476,-2.883 -18.951,-5.416 -28.606,-7.143c-0.755,-0.138 -1.51,-0.277 -2.264,-0.416c-1.788,-0.328 -3.576,-0.651 -5.365,-0.971c-0.928,-0.167 -1.855,-0.337 -2.782,-0.508c-2.562,-0.469 -5.105,-0.911 -7.689,-1.126c-0.72,-0.062 -0.72,-0.062 -1.454,-0.126c-0.345,-0.027 -0.689,-0.054 -1.045,-0.082l0,-0.556c1.173,-0.183 2.345,-0.367 3.553,-0.556l0,-0.556Z" style="fill:#fdf8f1;fill-rule:nonzero;"/><path d="M113.575,199.14c-2.469,1.587 -4.626,2.239 -7.385,2.431c-3.829,0.316 -7.53,1.301 -11.285,2.243c-1.359,0.336 -2.719,0.656 -4.081,0.973c-6.824,1.593 -13.584,3.448 -20.335,5.464c0.44,0.367 0.879,0.733 1.333,1.111c-3.344,0.281 -6.689,0.561 -10.033,0.84c-1.554,0.13 -3.108,0.26 -4.661,0.39c-13.201,1.108 -13.201,1.108 -19.507,1.547c1.504,-1.254 2.65,-1.576 4.411,-2.075c0.308,-0.088 0.616,-0.176 0.934,-0.267c1.012,-0.288 2.026,-0.571 3.039,-0.853c0.705,-0.199 1.41,-0.397 2.114,-0.596c6.404,-1.799 12.823,-3.503 19.262,-5.098c0.503,-0.128 0.503,-0.128 1.016,-0.259c5.977,-1.522 11.937,-2.607 18.001,-3.422c0.862,-0.119 1.724,-0.237 2.586,-0.356c17.129,-2.344 17.129,-2.344 24.593,-2.074Z" style="fill:#e0ae6c;fill-rule:nonzero;"/><path d="M448.044,199.696c6.041,-0.175 11.886,0.317 17.878,1.25c0.854,0.13 1.708,0.259 2.562,0.389c11.165,1.716 22.01,4.6 32.964,7.753c1.636,0.471 3.273,0.935 4.911,1.394c1.327,0.372 2.654,0.748 3.981,1.123c0.701,0.195 0.701,0.195 1.416,0.395c0.424,0.121 0.848,0.242 1.284,0.367c0.361,0.102 0.723,0.204 1.095,0.309c0.997,0.359 1.847,0.847 2.757,1.464c-6.45,-0.234 -12.85,-0.803 -19.268,-1.609c-4.087,-0.51 -8.169,-0.881 -12.269,-1.169l0,-1.111c-1.43,-0.655 -2.735,-1.123 -4.247,-1.389c-1.527,-0.278 -1.527,-0.278 -2.537,-0.793c-1.433,-0.705 -2.846,-1.106 -4.35,-1.516c-0.3,-0.082 -0.599,-0.164 -0.908,-0.249c-0.633,-0.173 -1.267,-0.345 -1.901,-0.515c-0.952,-0.257 -1.903,-0.517 -2.854,-0.779c-3.193,-0.871 -6.387,-1.674 -9.617,-2.308c-1.122,-0.228 -2.234,-0.497 -3.347,-0.785c-2.505,-0.643 -5.027,-1.157 -7.551,-1.667l0,-0.556Z" style="fill:#e3b06d;fill-rule:nonzero;"/><path d="M493.767,263.793c0.496,0.024 0.991,0.049 1.502,0.074c2.137,0.113 4.263,0.248 6.389,0.538c2.033,0.274 4.068,0.43 6.109,0.569c0.504,0.034 0.504,0.034 1.019,0.069c1.402,0.094 2.804,0.187 4.205,0.278c1.035,0.068 2.069,0.138 3.104,0.208c0.315,0.02 0.629,0.039 0.954,0.06c1.617,0.111 3.146,0.356 4.729,0.774c0.833,-0.058 1.666,-0.129 2.499,-0.208c4.187,-0.084 7.908,2.108 11.715,4.097l0,0.556c-9.908,-0.691 -19.805,-1.509 -29.701,-2.443c-2.931,-0.276 -5.861,-0.55 -8.792,-0.823c-0.46,-0.043 -0.46,-0.043 -0.929,-0.087c-4.476,-0.417 -8.953,-0.8 -13.435,-1.092c0.338,-1.084 0.338,-1.084 0.888,-2.222c3.228,-0.818 6.47,-0.536 9.744,-0.347Z" style="fill:#546ab4;fill-rule:nonzero;"/><path d="M484.467,229.696c6.534,0.153 12.758,2.23 19.032,4.364c4.364,1.466 8.767,2.709 13.171,3.969c5.431,1.554 10.842,3.14 16.213,5l0,0.556c-7.049,-0.189 -14.213,-2.277 -20.885,-5.048c-2.474,-0.949 -5.008,-1.534 -7.542,-2.174c2.785,1.1 5.57,2.2 8.439,3.333c-2.712,0.848 -4.591,0.171 -7.101,-1.211c-1.655,-0.843 -3.372,-1.431 -5.087,-2.053c-0.788,-0.29 -1.577,-0.581 -2.365,-0.872c-0.391,-0.144 -0.781,-0.288 -1.184,-0.437c-2.229,-0.833 -4.444,-1.721 -6.66,-2.606c-1.173,-0.442 -2.321,-0.819 -3.512,-1.163c-1.631,-0.547 -1.631,-0.547 -2.519,-1.658Z" style="fill:#d29951;fill-rule:nonzero;"/><path d="M69.157,229.696c-0.444,1.111 -0.444,1.111 -1.952,1.749c-0.653,0.231 -1.307,0.458 -1.962,0.681c-0.693,0.244 -1.386,0.489 -2.079,0.736c-0.342,0.121 -0.683,0.243 -1.035,0.368c-1.29,0.474 -2.557,1.017 -3.826,1.57c-1.939,0.828 -3.84,1.388 -5.854,1.838c-1.106,0.293 -2.131,0.71 -3.196,1.183c-1.414,0.624 -2.563,0.948 -4.081,0.764c1.094,-1.368 2.091,-1.665 3.553,-2.222c-0.657,0.21 -0.657,0.21 -1.327,0.424c-14.673,4.677 -14.673,4.677 -19.966,6c-0.514,0.13 -0.514,0.13 -1.038,0.262c-1.607,0.385 -3.127,0.629 -4.764,0.537c1.02,-1.276 1.546,-1.42 2.926,-1.847c0.425,-0.134 0.85,-0.268 1.288,-0.405c0.464,-0.142 0.929,-0.284 1.407,-0.43c0.484,-0.151 0.968,-0.302 1.467,-0.457c1.033,-0.321 2.067,-0.641 3.101,-0.958c1.539,-0.473 3.077,-0.951 4.614,-1.43c5.613,-1.743 11.236,-3.422 16.875,-5.029c2.395,-0.683 4.785,-1.387 7.166,-2.143c2.944,-0.928 5.632,-1.432 8.683,-1.189Z" style="fill:#cb944f;fill-rule:nonzero;"/><path d="M52.837,175.681c0.742,-0 0.742,-0 1.498,-0c1.627,0.001 3.254,0.009 4.881,0.018c1.131,0.002 2.262,0.004 3.393,0.005c2.668,0.004 5.336,0.013 8.004,0.024c3.039,0.012 6.078,0.019 9.117,0.024c6.248,0.012 12.496,0.031 18.743,0.056l0,0.556l-48.416,0l0,1.111l22.653,0c-1.823,1.14 -2.497,1.237 -4.466,1.186c-0.542,-0.011 -1.085,-0.022 -1.643,-0.034c-0.584,-0.018 -1.167,-0.036 -1.768,-0.054c-0.605,-0.015 -1.21,-0.029 -1.815,-0.042c-1.589,-0.037 -3.178,-0.081 -4.767,-0.126c-1.623,-0.045 -3.245,-0.084 -4.868,-0.123c-3.182,-0.078 -6.363,-0.162 -9.545,-0.252c2.315,-2.896 5.958,-2.375 8.999,-2.348Z" style="fill:#fae3c4;fill-rule:nonzero;"/><path d="M51.612,234.348c0.38,0.062 0.76,0.123 1.152,0.187c0.279,0.053 0.559,0.106 0.847,0.161c-1.502,1.252 -2.419,1.415 -4.192,1.771c-3.498,0.751 -6.918,1.816 -10.355,2.917c-3.789,1.207 -7.576,2.37 -11.41,3.333c-0.357,0.091 -0.714,0.182 -1.081,0.275c-1.667,0.406 -3.243,0.698 -4.943,0.593c1.044,-1.306 1.634,-1.445 3.053,-1.883c0.676,-0.211 0.676,-0.211 1.366,-0.427c0.489,-0.149 0.979,-0.298 1.483,-0.451c0.754,-0.234 0.754,-0.234 1.524,-0.473c1.614,-0.5 3.229,-0.994 4.844,-1.489c1.079,-0.333 2.157,-0.667 3.236,-1c2.425,-0.75 4.85,-1.497 7.276,-2.239c1.08,-0.334 2.156,-0.682 3.233,-1.032c1.466,-0.435 2.487,-0.5 3.967,-0.243Z" style="fill:#d6a765;fill-rule:nonzero;"/><path d="M484.467,229.696c3.541,0.14 6.904,0.619 10.355,1.597c0.332,0.09 0.664,0.179 1.005,0.272c0.933,0.279 0.933,0.279 2.409,0.909c0.147,0.55 0.293,1.1 0.444,1.667c1.31,0.688 1.31,0.688 2.927,1.217c0.44,0.159 0.44,0.159 0.888,0.321c0.939,0.339 1.879,0.668 2.82,0.996c0.939,0.331 1.878,0.665 2.815,1.002c0.852,0.306 1.705,0.605 2.558,0.905c1.317,0.559 1.317,0.559 2.205,1.67c-0.75,-0.049 -1.499,-0.109 -2.249,-0.174c-0.417,-0.032 -0.835,-0.064 -1.265,-0.098c-1.333,-0.276 -2.398,-0.795 -3.622,-1.494c-1.634,-0.869 -3.348,-1.436 -5.052,-2.054c-0.788,-0.29 -1.577,-0.581 -2.365,-0.872c-0.391,-0.144 -0.781,-0.288 -1.184,-0.437c-2.229,-0.833 -4.444,-1.721 -6.66,-2.606c-1.173,-0.442 -2.321,-0.819 -3.512,-1.163c-1.631,-0.547 -1.631,-0.547 -2.519,-1.658Z" style="fill:#cc9049;fill-rule:nonzero;"/><path d="M333.889,203.584c0.293,0.183 0.586,0.367 0.888,0.556l0,1.667c-0.233,0.139 -0.466,0.277 -0.707,0.42c-9.307,5.573 -18.53,11.872 -26.833,19.58c-0.293,-0.183 -0.586,-0.367 -0.888,-0.556c6.45,-6.214 13.516,-11.5 20.534,-16.644c0.553,-0.406 1.105,-0.815 1.656,-1.226c0.865,-0.645 1.733,-1.284 2.602,-1.922c0.396,-0.296 0.396,-0.296 0.799,-0.599c0.634,-0.46 1.291,-0.873 1.949,-1.276Z" style="fill:#eab97b;fill-rule:nonzero;"/><path d="M320.564,211.362c0.888,0.556 0.888,0.556 1.333,1.667c-0.495,0.37 -0.989,0.74 -1.499,1.122c-4.357,3.282 -8.598,6.708 -12.761,10.362c-1.126,0.987 -2.258,1.965 -3.39,2.943c-1.077,0.93 -2.152,1.863 -3.227,2.795c-0.293,-0.183 -0.586,-0.367 -0.888,-0.556c1.622,-1.677 3.252,-3.342 4.886,-5c0.266,-0.27 0.532,-0.54 0.806,-0.819c0.821,-0.831 1.645,-1.656 2.47,-2.48c0.259,-0.262 0.517,-0.525 0.784,-0.795c1.417,-1.407 2.706,-2.314 4.38,-3.129c0.752,-0.722 1.492,-1.464 2.221,-2.222c0.833,-0.722 1.676,-1.429 2.526,-2.118c0.423,-0.347 0.846,-0.695 1.282,-1.053c0.356,-0.237 0.711,-0.474 1.077,-0.718Z" style="fill:#fdf8ee;fill-rule:nonzero;"/><path d="M448.772,259.709c0.713,0.043 0.713,0.043 1.44,0.087c0.494,0.036 0.987,0.072 1.496,0.109c0.5,0.032 1.001,0.063 1.516,0.095c1.235,0.079 2.469,0.163 3.703,0.252l0,0.556c-0.879,0.183 -1.759,0.367 -2.665,0.556l0,1.111c-4.14,1.726 -9.446,0.384 -13.77,0l0,-0.556l3.998,0l0,-1.111c1.492,-1.134 2.554,-1.213 4.282,-1.098Z" style="fill:#556ab2;fill-rule:nonzero;"/><path d="M272.148,189.14l0.444,0c0.319,2.401 0.635,4.803 0.949,7.206c0.107,0.816 0.215,1.633 0.323,2.449c0.156,1.176 0.31,2.352 0.463,3.529c0.14,1.06 0.14,1.06 0.282,2.142c0.171,1.594 0.247,3.071 0.204,4.674c-0.44,-0.183 -0.879,-0.367 -1.333,-0.556c-0.786,-2.95 -1.015,-5.82 -1.206,-8.908c-0.215,-2.795 -0.618,-5.551 -1.015,-8.314l0.888,0l0,-2.222Z" style="fill:#fef9f1;fill-rule:nonzero;"/><path d="M255.194,238.151c2.437,0.75 4.6,2.193 6.849,3.558c0.48,0.283 0.961,0.566 1.456,0.857c3.101,1.867 5.898,3.987 8.649,6.573c-0.44,0.275 -0.44,0.275 -0.888,0.556c-0.938,-0.612 -1.822,-1.252 -2.721,-1.944c-5.029,-3.728 -10.345,-6.479 -15.935,-8.611c1.333,-1.111 1.333,-1.111 2.59,-0.989Z" style="fill:#e2e3e6;fill-rule:nonzero;"/><path d="M121.57,223.029l0,0.556c-0.439,0.064 -0.878,0.129 -1.33,0.195c-1.642,0.241 -3.285,0.482 -4.927,0.724c-0.708,0.104 -1.416,0.208 -2.125,0.312c-1.023,0.15 -2.047,0.301 -3.07,0.451c-0.312,0.046 -0.624,0.091 -0.945,0.139c-2.087,0.307 -4.173,0.629 -6.259,0.957l0,-0.556c-1.319,-0.183 -2.638,-0.367 -3.998,-0.556l0,-0.556c2.155,-0.242 4.31,-0.479 6.466,-0.712c0.73,-0.08 1.46,-0.16 2.19,-0.243c4.682,-0.526 9.295,-0.831 13.997,-0.712Z" style="fill:#dcb57e;fill-rule:nonzero;"/><path d="M245.053,225.807c2.033,-0.257 2.968,0.438 4.581,1.944c0.392,0.361 0.784,0.722 1.189,1.094c0.295,0.281 0.59,0.561 0.894,0.851c-0.44,0.275 -0.44,0.275 -0.888,0.556c0.44,0.917 0.879,1.833 1.333,2.778c-1.754,-0.313 -3.001,-0.921 -4.442,-2.222c-0.147,-0.55 -0.293,-1.1 -0.444,-1.667c-1.333,-0.949 -1.333,-0.949 -2.665,-1.667c0.147,-0.55 0.293,-1.1 0.444,-1.667Z" style="fill:#f9e0bb;fill-rule:nonzero;"/><path d="M532.882,243.029l0,0.556c-5.598,-0.15 -10.991,-1.823 -16.435,-3.333l0,-0.556c5.44,-1.371 11.199,1.539 16.435,3.333Z" style="fill:#dbab6d;fill-rule:nonzero;"/><path d="M298.354,238.029c0.888,0.556 0.888,0.556 1.333,1.667c-0.532,0.229 -1.064,0.458 -1.612,0.694c-4,1.763 -7.796,3.636 -11.471,6.304c-0.661,0.474 -1.339,0.908 -2.02,1.335c-0.293,-0.183 -0.586,-0.367 -0.888,-0.556c4.578,-3.745 9.446,-7.272 14.658,-9.444Z" style="fill:#eeedeb;fill-rule:nonzero;"/><path d="M307.682,224.696c0.44,0.367 0.879,0.733 1.333,1.111c-0.44,0.275 -0.44,0.275 -0.888,0.556l0,1.667c-0.44,0.367 -0.879,0.733 -1.333,1.111c0.147,0.367 0.293,0.733 0.444,1.111c-2.554,1.667 -2.554,1.667 -3.553,1.667l0,-1.111c-0.879,0.183 -1.759,0.367 -2.665,0.556c1.334,-1.763 2.753,-3.174 4.331,-4.583c0.437,-0.392 0.875,-0.785 1.326,-1.189c0.332,-0.295 0.664,-0.59 1.006,-0.894Z" style="fill:#f7dbb3;fill-rule:nonzero;"/><path d="M158.437,155.251c3.878,1.186 7.741,2.378 11.549,3.889c0.147,0.917 0.293,1.833 0.444,2.778c-2.494,-0.995 -4.93,-2.108 -7.355,-3.342c-1.536,-0.774 -3.085,-1.494 -4.638,-2.214l0,-1.111Z" style="fill:#f1c88e;fill-rule:nonzero;"/><path d="M281.031,190.807c0.147,0.733 0.293,1.467 0.444,2.222l0.888,0c-0.091,0.537 -0.182,1.074 -0.276,1.628c-0.622,3.739 -1.192,7.412 -1.407,11.23c-0.094,1.031 -0.094,1.031 -0.538,2.142l-0.888,0c-0.147,0.367 -0.293,0.733 -0.444,1.111c0.052,-0.845 0.108,-1.69 0.167,-2.535c0.031,-0.471 0.062,-0.941 0.094,-1.426c0.184,-1.595 0.184,-1.595 0.614,-3.435c0.503,-2.249 0.751,-4.422 0.958,-6.736c0.038,-0.406 0.077,-0.813 0.116,-1.232c0.093,-0.99 0.183,-1.98 0.272,-2.97Z" style="fill:#fdf9f0;fill-rule:nonzero;"/><path d="M503.122,235.807c2.704,0.351 5.255,1.02 7.884,1.875c0.387,0.124 0.775,0.247 1.174,0.375c0.771,0.246 1.541,0.493 2.312,0.741c1.427,0.458 2.857,0.904 4.287,1.35c0.415,0.13 1.679,0.525 2.11,0.66c-0.293,0.183 -0.586,0.367 -0.888,0.556l0,1.111c-3.749,-1.251 -7.47,-2.607 -11.188,-3.993c-0.55,-0.204 -1.1,-0.409 -1.667,-0.62c-1.342,-0.499 -2.683,-0.998 -4.025,-1.498l0,-0.556Z" style="fill:#f3e1c9;fill-rule:nonzero;"/><path d="M311.236,218.584c0.293,0.183 0.586,0.367 0.888,0.556c-1.114,3.173 -3.27,4.647 -5.497,6.493c-0.378,0.323 -0.756,0.645 -1.145,0.978c-1.749,1.474 -3.365,2.72 -5.351,3.64c1.808,-2.364 3.764,-4.411 5.802,-6.458c0.471,-0.477 0.471,-0.477 0.952,-0.964c1.433,-1.447 2.873,-2.87 4.351,-4.245Z" style="fill:#fbf1dd;fill-rule:nonzero;"/><path d="M182.423,253.584c1.231,-0.045 2.461,-0.078 3.692,-0.104c0.349,-0.014 0.698,-0.028 1.058,-0.042c0.336,-0.005 0.673,-0.011 1.019,-0.016c0.464,-0.013 0.464,-0.013 0.937,-0.026c1.086,0.243 1.478,0.819 2.177,1.856c-2.068,0.512 -4.063,0.623 -6.163,0.59c-0.459,-0.004 -0.459,-0.004 -0.927,-0.008c-0.746,-0.006 -1.492,-0.016 -2.238,-0.027c0.147,-0.733 0.293,-1.467 0.444,-2.222Z" style="fill:#667bbf;fill-rule:nonzero;"/><path d="M36.287,239.696l0,0.556c-1.73,0.478 -3.46,0.953 -5.192,1.424c-0.588,0.161 -1.176,0.322 -1.764,0.485c-0.847,0.234 -1.696,0.465 -2.544,0.695c-0.764,0.209 -0.764,0.209 -1.544,0.423c-1.244,0.273 -2.357,0.368 -3.615,0.306c1.583,-1.98 3.953,-2.217 6.08,-2.882c0.478,-0.159 0.957,-0.317 1.45,-0.481c2.553,-0.805 4.553,-1.323 7.129,-0.526Z" style="fill:#ddb274;fill-rule:nonzero;"/><path d="M336.11,222.473c-0.229,1.068 -0.229,1.068 -0.888,2.222c-1.192,0.354 -2.234,0.564 -3.442,0.694c-0.469,0.064 -0.469,0.064 -0.947,0.13c-1.8,0.234 -3.571,0.329 -5.382,0.286l0,-1.111c1.609,-0.481 3.22,-0.953 4.83,-1.424c0.459,-0.137 0.917,-0.274 1.39,-0.416c0.438,-0.127 0.876,-0.254 1.327,-0.385c0.607,-0.179 0.607,-0.179 1.226,-0.361c0.998,-0.192 0.998,-0.192 1.886,0.364Z" style="fill:#e6c496;fill-rule:nonzero;"/><path d="M245.984,229.448c2.115,0.867 4.004,2.268 5.925,3.65c0.367,0.26 0.735,0.52 1.113,0.788c0.898,0.637 1.795,1.277 2.69,1.921c-1.599,0.667 -1.85,0.419 -3.328,-0.445c-0.386,-0.222 -0.773,-0.445 -1.171,-0.674c-0.403,-0.238 -0.805,-0.476 -1.22,-0.722c-0.795,-0.461 -1.589,-0.922 -2.384,-1.382c-0.352,-0.207 -0.704,-0.414 -1.067,-0.628c-1.077,-0.611 -2.166,-1.166 -3.267,-1.705c1.333,-1.111 1.333,-1.111 2.708,-0.803Z" style="fill:#dbb17c;fill-rule:nonzero;"/><path d="M316.122,224.14c0.147,0.367 0.293,0.733 0.444,1.111c-1.366,0.763 -2.737,1.511 -4.109,2.257c-0.388,0.217 -0.775,0.433 -1.175,0.656c-0.563,0.303 -0.563,0.303 -1.136,0.613c-0.344,0.189 -0.689,0.378 -1.043,0.573c-1.105,0.39 -1.683,0.26 -2.753,-0.211c7.301,-6.03 7.301,-6.03 9.772,-5Z" style="fill:#fbf7f0;fill-rule:nonzero;"/><path d="M243.72,220.251c2.639,2.05 5.04,4.364 7.404,6.874c1.623,1.718 3.277,3.295 5.033,4.792c-1.567,0 -1.955,-0.399 -3.215,-1.502c-0.364,-0.316 -0.729,-0.632 -1.104,-0.957c-0.379,-0.334 -0.759,-0.669 -1.149,-1.013c-0.748,-0.651 -1.496,-1.302 -2.243,-1.953c-0.353,-0.312 -0.706,-0.624 -1.07,-0.945c-0.848,-0.73 -1.709,-1.396 -2.591,-2.058c-0.351,-0.335 -0.702,-0.67 -1.064,-1.016l0,-2.222Z" style="fill:#fcf3df;fill-rule:nonzero;"/><path d="M502.234,175.807c3.375,-0.217 6.15,0.218 9.328,1.667l0,0.556l-9.772,0c0.293,-0.367 0.586,-0.733 0.888,-1.111c-0.147,-0.367 -0.293,-0.733 -0.444,-1.111Z" style="fill:#fbd8ad;fill-rule:nonzero;"/><path d="M484.467,229.696c3.494,0.236 6.823,0.569 10.216,1.667c-0.726,0.949 -1.274,1.63 -2.221,2.222c-0.858,-0.388 -1.714,-0.782 -2.561,-1.207c-0.973,-0.451 -1.924,-0.764 -2.936,-1.05c-1.61,-0.521 -1.61,-0.521 -2.499,-1.632Z" style="fill:#ce9857;fill-rule:nonzero;"/><path d="M316.566,217.473c0.293,0.183 0.586,0.367 0.888,0.556c-0.686,2.576 -2.345,3.268 -4.164,4.583c-0.347,0.262 -0.694,0.524 -1.051,0.794c-0.334,0.245 -0.669,0.49 -1.013,0.742c-0.46,0.338 -0.46,0.338 -0.929,0.682c-0.837,0.42 -0.837,0.42 -2.17,-0.135c5.743,-5.322 5.743,-5.322 8.439,-7.222Z" style="fill:#fcf6ed;fill-rule:nonzero;"/><path d="M512.45,236.918c0.816,0.188 0.816,0.188 1.648,0.38c0.537,0.138 1.074,0.276 1.628,0.419c0.816,0.205 0.816,0.205 1.648,0.414c0.641,0.225 0.641,0.225 1.294,0.454c0.147,0.367 0.293,0.733 0.444,1.111c-2.676,0.122 -4.964,-0.281 -7.551,-1.111c-0.344,-0.106 -0.688,-0.212 -1.043,-0.321c-0.838,-0.259 -1.674,-0.524 -2.511,-0.79c1.747,-1.456 2.414,-1.036 4.442,-0.556Z" style="fill:#d2a160;fill-rule:nonzero;"/><path d="M214.404,200.251c1.684,0.805 3.281,1.751 4.886,2.778l0,2.222c-2.159,-0.337 -3.882,-1.515 -5.774,-2.778c0.293,-0.733 0.586,-1.467 0.888,-2.222Z" style="fill:#e6b47a;fill-rule:nonzero;"/><path d="M50.501,236.362c-1.665,0.651 -3.333,1.294 -5.002,1.929c-0.845,0.324 -1.689,0.654 -2.533,0.984c-0.534,0.202 -1.068,0.405 -1.618,0.613c-0.491,0.189 -0.982,0.378 -1.487,0.573c-1.382,0.352 -2.231,0.272 -3.574,-0.211c2.228,-1.52 4.66,-2.115 7.107,-2.882c0.728,-0.238 0.728,-0.238 1.471,-0.481c0.467,-0.147 0.934,-0.294 1.416,-0.446c0.639,-0.203 0.639,-0.203 1.291,-0.411c1.154,-0.226 1.836,-0.141 2.929,0.33Z" style="fill:#efddc3;fill-rule:nonzero;"/><path d="M220.178,222.473c0.423,0.114 0.846,0.228 1.282,0.345c0.557,0.15 1.114,0.299 1.688,0.454c0.551,0.148 1.103,0.296 1.671,0.449c1.265,0.336 2.53,0.662 3.798,0.974l0,1.111c-0.99,-0.064 -1.981,-0.135 -2.97,-0.208c-0.551,-0.039 -1.103,-0.077 -1.671,-0.117c-1.441,-0.21 -2.495,-0.574 -3.798,-1.341l0,-1.667Z" style="fill:#e5c090;fill-rule:nonzero;"/><path d="M48.28,211.362c-2.423,2.012 -4.195,2.571 -7.079,2.639c-0.519,0.025 -0.519,0.025 -1.049,0.05c-0.844,0.039 -1.688,0.065 -2.532,0.089c1.649,-1.375 3.171,-1.771 5.08,-2.326c0.339,-0.106 0.679,-0.211 1.028,-0.32c0.329,-0.097 0.658,-0.194 0.997,-0.294c0.299,-0.089 0.597,-0.178 0.905,-0.27c0.991,-0.14 1.704,0.064 2.65,0.432Z" style="fill:#e6b87c;fill-rule:nonzero;"/><path d="M238.834,219.696c1.72,0.788 3.201,1.794 4.747,3.021c0.635,0.497 0.635,0.497 1.282,1.005c1.077,0.974 1.077,0.974 1.966,2.641c-2.183,-0.798 -3.999,-1.968 -5.941,-3.403c-0.285,-0.207 -0.569,-0.414 -0.862,-0.627c-0.695,-0.506 -1.388,-1.015 -2.08,-1.526c0.293,-0.367 0.586,-0.733 0.888,-1.111Z" style="fill:#fcf3e3;fill-rule:nonzero;"/><path d="M275.257,206.362l0.444,0c1.058,11.962 1.058,11.962 0.888,17.778l-0.444,0c-0.623,-2.944 -0.957,-5.619 -0.888,-8.663c0,-2.057 -0.202,-4.082 -0.39,-6.124c-0.054,-1.324 -0.054,-1.324 0.39,-2.99Z" style="fill:#fdeed5;fill-rule:nonzero;"/><path d="M225.064,248.029c0.68,0.119 1.36,0.239 2.039,0.365c0.837,0.149 1.676,0.286 2.516,0.417c0.769,0.129 0.769,0.129 1.553,0.26c0.492,0.079 0.985,0.158 1.492,0.239c1.323,0.398 1.797,0.732 2.617,2.053c-0.286,-0.085 -0.571,-0.17 -0.866,-0.258c-1.754,-0.385 -3.493,-0.496 -5.269,-0.61c-0.35,-0.024 -0.7,-0.048 -1.061,-0.073c-0.859,-0.059 -1.717,-0.115 -2.576,-0.17c0.293,-0.367 0.586,-0.733 0.888,-1.111c-0.44,-0.367 -0.879,-0.733 -1.333,-1.111Z" style="fill:#0e1c5f;fill-rule:nonzero;"/><path d="M44.727,238.584l0,1.111c-0.29,0.107 -0.579,0.215 -0.878,0.326c-0.388,0.145 -0.776,0.289 -1.176,0.438c-0.406,0.151 -0.812,0.302 -1.23,0.458c-0.884,0.34 -1.759,0.714 -2.629,1.105c-1.206,0.456 -2.163,0.543 -3.415,0.451c0.444,-1.111 0.444,-1.111 1.98,-1.827c0.644,-0.252 1.289,-0.499 1.935,-0.742c0.322,-0.127 0.644,-0.255 0.976,-0.386c1.558,-0.599 2.795,-0.933 4.437,-0.933Z" style="fill:#d39b57;fill-rule:nonzero;"/><path d="M287.694,241.918c0.44,0.183 0.879,0.367 1.333,0.556c-0.561,2.103 -1.132,2.344 -2.637,3.438c-0.398,0.294 -0.796,0.589 -1.206,0.892c-1.043,0.671 -1.043,0.671 -1.931,0.671c0.626,-1.893 1.317,-2.749 2.665,-3.889c0.302,-0.321 0.605,-0.642 0.916,-0.972c0.284,-0.229 0.568,-0.458 0.861,-0.694Z" style="fill:#f3cc96;fill-rule:nonzero;"/><path d="M56.72,264.696c-4.837,0.275 -4.837,0.275 -9.772,0.556l0,-1.111c1.082,-0.201 2.165,-0.397 3.248,-0.59c0.307,-0.058 0.613,-0.115 0.929,-0.175c2.377,-0.417 3.432,-0.032 5.595,1.321Z" style="fill:#2a3c86;fill-rule:nonzero;"/><path d="M272.148,230.251c1.018,1.61 1.812,3.24 2.554,5.069c0.199,0.483 0.399,0.965 0.604,1.463c0.131,0.411 0.261,0.822 0.396,1.246c-0.147,0.367 -0.293,0.733 -0.444,1.111c-1.319,-2.2 -2.638,-4.4 -3.998,-6.667c0.293,-0.733 0.586,-1.467 0.888,-2.222Z" style="fill:#efbf87;fill-rule:nonzero;"/><path d="M521.944,239.661c0.706,0.162 0.706,0.162 1.426,0.328c0.354,0.087 0.708,0.173 1.072,0.263c-0.147,0.55 -0.293,1.1 -0.444,1.667c-2.542,-0.415 -5.041,-1.016 -7.551,-1.667l0,-0.556c1.978,-0.531 3.513,-0.503 5.497,-0.035Z" style="fill:#dbb17a;fill-rule:nonzero;"/><path d="M70.045,211.362l0,0.556c-3.666,1.112 -6.924,1.105 -10.66,0.556l0,-0.556c3.565,-0.443 7.079,-0.627 10.66,-0.556Z" style="fill:#f9e9d1;fill-rule:nonzero;"/><path d="M495.571,261.918c2.638,0.55 2.638,0.55 5.33,1.111c-1.887,1.18 -3.184,1.243 -5.219,1.181c-0.31,-0.005 -0.62,-0.01 -0.939,-0.015c-0.761,-0.013 -1.521,-0.033 -2.282,-0.054l0,-0.556c1.539,-0.275 1.539,-0.275 3.109,-0.556l0,-1.111Z" style="fill:#243580;fill-rule:nonzero;"/><path d="M106.912,199.14l6.663,0c-1.796,1.123 -2.996,1.742 -4.969,1.701c-0.838,-0.017 -0.838,-0.017 -1.693,-0.035l0,-1.667Z" style="fill:#e5bc86;fill-rule:nonzero;"/><path d="M277.034,235.807c0.719,1.429 0.908,2.043 0.722,3.75c-0.092,0.412 -0.183,0.825 -0.278,1.25c-0.44,0.183 -0.879,0.367 -1.333,0.556c-0.5,-0.938 -0.5,-0.938 -0.888,-2.222c0.333,-1.493 0.333,-1.493 0.888,-2.778c0.293,-0.183 0.586,-0.367 0.888,-0.556Z" style="fill:#fcf5e9;fill-rule:nonzero;"/><path d="M489.353,211.918l8.439,0l0,0.556l-3.553,0l0,1.111c-0.648,-0.063 -1.296,-0.134 -1.943,-0.208c-0.541,-0.058 -0.541,-0.058 -1.093,-0.117c-0.961,-0.23 -0.961,-0.23 -1.85,-1.341Z" style="fill:#fcf4e9;fill-rule:nonzero;"/><path d="M326.484,209.876c0.245,0.124 0.49,0.248 0.743,0.375c-0.868,0.651 -1.739,1.299 -2.61,1.944c-0.484,0.361 -0.969,0.722 -1.468,1.094c-1.253,0.851 -1.253,0.851 -2.141,0.851l0,-1.111c0.909,-0.857 0.909,-0.857 2.11,-1.771c0.392,-0.306 0.783,-0.612 1.187,-0.927c1.145,-0.636 1.145,-0.636 2.179,-0.456Z" style="fill:#e7b06e;fill-rule:nonzero;"/><path d="M393.853,156.918c-0.869,0.465 -1.739,0.928 -2.61,1.389c-0.484,0.258 -0.969,0.516 -1.468,0.781c-1.253,0.608 -1.253,0.608 -2.141,0.608l0,-1.111c-0.293,-0.183 -0.586,-0.367 -0.888,-0.556c0.85,-0.296 1.702,-0.584 2.554,-0.868c0.474,-0.161 0.948,-0.322 1.437,-0.488c1.27,-0.294 1.924,-0.301 3.116,0.245Z" style="fill:#f3ce9a;fill-rule:nonzero;"/><path d="M307.682,224.696c0.44,0.367 0.879,0.733 1.333,1.111c-0.941,0.758 -1.885,1.509 -2.832,2.257c-0.268,0.217 -0.536,0.433 -0.812,0.656c-0.694,0.545 -1.411,1.042 -2.131,1.531c-0.293,-0.183 -0.586,-0.367 -0.888,-0.556c1.759,-1.65 3.518,-3.3 5.33,-5Z" style="fill:#faead0;fill-rule:nonzero;"/><path d="M448.044,199.696c0.925,-0.015 1.851,-0.026 2.776,-0.035c0.515,-0.006 1.031,-0.013 1.562,-0.02c1.174,0.044 2.102,0.173 3.213,0.61l0,1.111c-0.842,-0.079 -1.684,-0.16 -2.526,-0.243c-0.469,-0.045 -0.938,-0.09 -1.421,-0.137c-1.228,-0.156 -2.4,-0.399 -3.604,-0.731l0,-0.556Z" style="fill:#deaa67;fill-rule:nonzero;"/><path d="M198.414,251.918l8.439,0c-0.147,0.55 -0.293,1.1 -0.444,1.667l-2.221,0l0,-0.556c-1.906,-0.183 -3.811,-0.367 -5.774,-0.556l0,-0.556Z" style="fill:#5367ad;fill-rule:nonzero;"/><path d="M327.894,247.975c0.672,0.01 0.672,0.01 1.359,0.02c0.449,0.005 0.899,0.01 1.362,0.015c0.521,0.01 0.521,0.01 1.053,0.02l0,0.556c-3.002,1.155 -5.755,1.229 -8.884,1.111l0,-0.556c0.911,-0.127 1.822,-0.253 2.733,-0.38c1.13,-0.242 1.134,-0.725 2.377,-0.786Z" style="fill:#0a185e;fill-rule:nonzero;"/><path d="M249.494,225.807c0.22,0.208 0.441,0.417 0.668,0.632c1.978,1.864 3.974,3.689 5.995,5.48c-1.839,0 -2.868,-1.205 -4.303,-2.5c-0.269,-0.238 -0.539,-0.477 -0.816,-0.723c-0.664,-0.589 -1.326,-1.183 -1.988,-1.777c0.147,-0.367 0.293,-0.733 0.444,-1.111Z" style="fill:#f9e5c2;fill-rule:nonzero;"/><path d="M28.736,241.918l0,0.556c-0.768,0.188 -1.536,0.373 -2.304,0.556c-0.642,0.155 -0.642,0.155 -1.296,0.312c-1.194,0.226 -2.302,0.287 -3.507,0.243c1.916,-2.397 4.611,-2.447 7.107,-1.667Z" style="fill:#e1b87e;fill-rule:nonzero;"/><path d="M33.178,264.14c-0.366,0.252 -0.733,0.504 -1.11,0.764c-0.55,0.447 -0.55,0.447 -1.11,0.903l0,1.111l-2.665,0l0,-1.667c0.646,-0.294 1.294,-0.583 1.943,-0.868c0.361,-0.161 0.721,-0.322 1.093,-0.488c0.961,-0.31 0.961,-0.31 1.85,0.245Z" style="fill:#425194;fill-rule:nonzero;"/><path d="M281.031,231.918c0.147,0.367 0.293,0.733 0.444,1.111c-0.606,1.426 -0.606,1.426 -1.471,3.09c-0.423,0.826 -0.423,0.826 -0.855,1.669c-0.783,1.352 -0.783,1.352 -1.671,1.908c0.631,-3.155 1.952,-5.295 3.553,-7.778Z" style="fill:#f3ce9e;fill-rule:nonzero;"/><path d="M35.926,240.216c0.838,0.017 0.838,0.017 1.693,0.035c-0.444,1.111 -0.444,1.111 -1.265,1.463c-0.325,0.09 -0.649,0.18 -0.984,0.273c-0.489,0.14 -0.489,0.14 -0.987,0.282c-0.251,0.067 -0.503,0.135 -0.762,0.204l0,-1.111c-0.293,-0.183 -0.586,-0.367 -0.888,-0.556c1.222,-0.509 1.936,-0.616 3.193,-0.59Z" style="fill:#faf3ea;fill-rule:nonzero;"/><path d="M228.618,210.807c2.218,0.71 3.365,1.763 4.886,3.889c-1.863,-0.373 -3.288,-1.587 -4.886,-2.778l0,-1.111Z" style="fill:#e0ab72;fill-rule:nonzero;"/><path d="M529.773,268.029c-0.147,0.55 -0.293,1.1 -0.444,1.667l-3.553,0c0.44,-0.367 0.879,-0.733 1.333,-1.111c-0.293,-0.367 -0.586,-0.733 -0.888,-1.111c1.511,-0.675 2.191,-0.479 3.553,0.556Z" style="fill:#5e73be;fill-rule:nonzero;"/><path d="M381.056,254.591c0.483,0.015 0.965,0.03 1.463,0.046c0.554,0.029 0.554,0.029 1.119,0.059l0,0.556l-3.109,0l0,1.111l-3.553,0c1.175,-1.964 2.197,-1.847 4.081,-1.771Z" style="fill:#6b7fc6;fill-rule:nonzero;"/><path d="M263.264,238.584c1.887,0.262 2.784,1.605 3.998,3.333l0,1.111c-1.899,-0.879 -2.783,-2.503 -3.998,-4.444Z" style="fill:#e5b87a;fill-rule:nonzero;"/><path d="M158.437,155.251c2.638,0.825 2.638,0.825 5.33,1.667c-1.777,1.111 -1.777,1.111 -2.728,0.855c-0.309,-0.168 -0.618,-0.335 -0.937,-0.508c-0.314,-0.165 -0.628,-0.329 -0.951,-0.499c-0.236,-0.133 -0.472,-0.266 -0.715,-0.404l0,-1.111Z" style="fill:#f5d5a7;fill-rule:nonzero;"/><path d="M287.694,246.918c-2.199,1.65 -2.199,1.65 -4.442,3.333l0,-1.667c2.943,-2.292 2.943,-2.292 4.442,-1.667Z" style="fill:#13235d;fill-rule:nonzero;"/><path d="M512.894,240.251c1.173,0.183 2.345,0.367 3.553,0.556l0,1.667c-1.173,-0.367 -2.345,-0.733 -3.553,-1.111l0,-1.111Z" style="fill:#d69f5b;fill-rule:nonzero;"/><path d="M47.392,235.807c-0.147,0.367 -0.293,0.733 -0.444,1.111c-1.435,0.479 -2.321,0.726 -3.72,0.035c-0.238,-0.195 -0.476,-0.39 -0.722,-0.59c3.3,-1.349 3.3,-1.349 4.886,-0.556Z" style="fill:#dbaf6f;fill-rule:nonzero;"/><path d="M289.471,239.14l0,1.667c-0.777,0.892 -0.777,0.892 -1.777,1.771c-0.33,0.294 -0.66,0.589 -0.999,0.892c-0.257,0.221 -0.513,0.443 -0.777,0.671c0.838,-2.38 1.936,-3.417 3.553,-5Z" style="fill:#e6b372;fill-rule:nonzero;"/><path d="M54.943,233.584c-0.444,0.833 -0.444,0.833 -1.333,1.667c-1.207,0.152 -2.335,0.075 -3.553,0c1.697,-1.744 2.737,-2.563 4.886,-1.667Z" style="fill:#d29b53;fill-rule:nonzero;"/><path d="M238.834,216.362c1.401,0.337 2.305,0.912 3.442,1.979c0.409,0.379 0.409,0.379 0.826,0.766c0.306,0.291 0.306,0.291 0.618,0.588c-0.44,0.275 -0.44,0.275 -0.888,0.556c-0.667,-0.542 -1.333,-1.086 -1.999,-1.632c-0.371,-0.303 -0.742,-0.606 -1.124,-0.918c-0.289,-0.259 -0.577,-0.517 -0.874,-0.783l0,-0.556Z" style="fill:#fce8c4;fill-rule:nonzero;"/><path d="M42.506,212.473l0,1.111c-1.632,0.653 -3.184,0.596 -4.886,0.556c1.725,-1.439 2.855,-1.735 4.886,-1.667Z" style="fill:#e6be8b;fill-rule:nonzero;"/><path d="M305.906,229.14c0.44,0.367 0.879,0.733 1.333,1.111c-2.554,1.667 -2.554,1.667 -3.553,1.667l0,-1.667c1.027,-0.625 1.027,-0.625 2.221,-1.111Z" style="fill:#f8e6c6;fill-rule:nonzero;"/><path d="M276.145,217.473l0.444,0l0,6.667l-0.444,0c-0.174,-0.796 -0.338,-1.596 -0.5,-2.396c-0.093,-0.445 -0.186,-0.889 -0.281,-1.348c-0.108,-1.257 -0.108,-1.257 0.781,-2.923Z" style="fill:#fdf5e5;fill-rule:nonzero;"/><path d="M363.205,253.584l4.442,0l0,0.556l-3.109,0l0,1.111l-2.221,0c0.293,-0.183 0.586,-0.367 0.888,-0.556l0,-1.111Z" style="fill:#6479be;fill-rule:nonzero;"/><path d="M247.718,229.14c0.293,0.367 0.586,0.733 0.888,1.111c-2.943,-0.417 -2.943,-0.417 -4.442,-1.667c1.622,-0.676 2.056,-0.357 3.553,0.556Z" style="fill:#faf2e4;fill-rule:nonzero;"/></svg>